<svg width="356" height="238" viewBox="0 0 356 238" fill="none" xmlns="http://www.w3.org/2000/svg">
<path d="M118.054 98.7747C117.399 99.7743 116.958 100.874 116.721 102.012L114.917 102.183V105.681L116.721 105.853C116.953 106.986 117.395 108.085 118.054 109.09L116.906 110.484L119.374 112.96L120.765 111.808C121.761 112.464 122.858 112.907 123.992 113.145L124.163 114.954H127.652L127.823 113.145C128.953 112.907 130.049 112.469 131.051 111.808L132.441 112.96L134.91 110.484L133.761 109.09C134.416 108.09 134.858 106.99 135.095 105.853L136.899 105.681V102.183L135.095 102.012C134.862 100.879 134.421 99.7791 133.761 98.7747L134.91 97.38L132.441 94.9048L131.051 96.0568C130.054 95.3999 128.953 94.9572 127.823 94.7192L127.652 92.9104H124.163L123.992 94.7192C122.863 94.9524 121.766 95.3951 120.765 96.0568L119.374 94.9048L116.906 97.38L118.054 98.7747ZM129.242 100.579C131.089 102.43 131.089 105.429 129.242 107.276C127.396 109.128 124.405 109.128 122.559 107.276C120.712 105.424 120.712 102.426 122.559 100.574C124.405 98.7224 127.396 98.7224 129.237 100.574L129.242 100.579Z" fill="#F5F5F5"/>
<path d="M205.55 106.043C205.122 106.695 204.833 107.414 204.681 108.152L203.509 108.261V110.541L204.681 110.651C204.833 111.389 205.122 112.107 205.55 112.76L204.8 113.669L206.409 115.282L207.315 114.53C207.966 114.959 208.682 115.249 209.418 115.401L209.527 116.577H211.801L211.91 115.401C212.646 115.249 213.363 114.959 214.013 114.53L214.92 115.282L216.529 113.669L215.779 112.76C216.206 112.107 216.495 111.389 216.647 110.651L217.82 110.541V108.261L216.647 108.152C216.495 107.414 216.206 106.695 215.779 106.043L216.529 105.134L214.92 103.52L214.013 104.273C213.363 103.844 212.646 103.554 211.91 103.401L211.801 102.226H209.527L209.418 103.401C208.682 103.554 207.966 103.844 207.315 104.273L206.409 103.52L204.8 105.134L205.55 106.043ZM212.841 107.219C214.041 108.423 214.041 110.38 212.841 111.584C211.64 112.788 209.689 112.788 208.488 111.584C207.287 110.38 207.287 108.423 208.488 107.219C209.689 106.015 211.64 106.015 212.841 107.219Z" fill="#F5F5F5"/>
<path d="M219.666 123.146C219.225 123.817 218.931 124.555 218.774 125.316L217.563 125.431V127.777L218.774 127.892C218.931 128.653 219.23 129.391 219.666 130.062L218.893 131L220.549 132.661L221.484 131.885C222.153 132.328 222.889 132.623 223.649 132.78L223.763 133.994H226.103L226.217 132.78C226.976 132.623 227.712 132.323 228.381 131.885L229.316 132.661L230.973 131L230.199 130.062C230.641 129.391 230.935 128.653 231.091 127.892L232.302 127.777V125.431L231.091 125.316C230.935 124.555 230.636 123.817 230.199 123.146L230.973 122.208L229.316 120.547L228.381 121.323C227.712 120.88 226.976 120.585 226.217 120.428L226.103 119.214H223.763L223.649 120.428C222.889 120.585 222.153 120.885 221.484 121.323L220.549 120.547L218.893 122.208L219.666 123.146ZM227.175 124.36C228.414 125.602 228.414 127.616 227.175 128.858C225.937 130.1 223.929 130.1 222.69 128.858C221.451 127.616 221.451 125.602 222.69 124.36C223.929 123.117 225.937 123.117 227.175 124.36Z" fill="#E0E0E0"/>
<path d="M47.647 133.147C46.6123 134.727 45.9145 136.469 45.5443 138.259L42.6963 138.525V144.057L45.5443 144.328C45.9145 146.122 46.6123 147.86 47.647 149.44L45.8291 151.644L49.7261 155.552L51.9238 153.729C53.4997 154.767 55.237 155.466 57.0217 155.838L57.2875 158.694H62.8031L63.0737 155.838C64.8632 155.466 66.5957 154.767 68.1716 153.729L70.3693 155.552L74.2663 151.644L72.4484 149.44C73.4831 147.86 74.1809 146.118 74.5511 144.328L77.3991 144.057V138.525L74.5511 138.254C74.1809 136.46 73.4831 134.722 72.4484 133.142L74.2663 130.938L70.3693 127.03L68.1716 128.853C66.591 127.815 64.8584 127.116 63.0737 126.744L62.8031 123.888H57.2875L57.0217 126.744C55.2322 127.116 53.4997 127.815 51.9238 128.853L49.7261 127.03L45.8291 130.938L47.647 133.142V133.147ZM65.3284 136.003C68.2428 138.925 68.2428 143.666 65.3284 146.589C62.4139 149.512 57.6862 149.512 54.7718 146.589C51.8573 143.666 51.8573 138.925 54.7718 136.003C57.6862 133.08 62.4139 133.08 65.3284 136.003Z" fill="#F5F5F5"/>
<path d="M277.623 136.112C276.959 137.131 276.508 138.249 276.27 139.401L274.438 139.573V143.128L276.27 143.3C276.508 144.452 276.959 145.57 277.623 146.589L276.455 148.007L278.962 150.521L280.376 149.35C281.392 150.016 282.507 150.468 283.656 150.706L283.827 152.544H287.373L287.544 150.706C288.692 150.468 289.808 150.016 290.824 149.35L292.238 150.521L294.744 148.007L293.577 146.589C294.241 145.57 294.692 144.452 294.929 143.3L296.762 143.128V139.573L294.929 139.401C294.692 138.249 294.241 137.131 293.577 136.112L294.744 134.694L292.238 132.18L290.824 133.351C289.808 132.685 288.692 132.233 287.544 131.995L287.373 130.157H283.827L283.656 131.995C282.507 132.233 281.392 132.685 280.376 133.351L278.962 132.18L276.455 134.694L277.623 136.112ZM288.996 137.95C290.871 139.83 290.871 142.881 288.996 144.761C287.121 146.641 284.079 146.641 282.204 144.761C280.329 142.881 280.329 139.83 282.204 137.95C284.079 136.069 287.116 136.069 288.996 137.95Z" fill="#F5F5F5"/>
<path d="M42.7532 164.791C42.2263 165.596 41.8751 166.476 41.6852 167.385L40.2375 167.523V170.332L41.6852 170.47C41.8751 171.379 42.2263 172.264 42.7532 173.064L41.8276 174.183L43.807 176.168L44.9224 175.239C45.7246 175.768 46.6028 176.12 47.5094 176.31L47.647 177.762H50.4476L50.5852 176.31C51.4918 176.12 52.3747 175.768 53.1722 175.239L54.2876 176.168L56.267 174.183L55.3414 173.064C55.8683 172.26 56.2195 171.379 56.4094 170.47L57.8571 170.332V167.523L56.4094 167.385C56.2195 166.476 55.8683 165.591 55.3414 164.791L56.267 163.673L54.2876 161.688L53.1722 162.616C52.37 162.087 51.4918 161.735 50.5852 161.545L50.4476 160.093H47.647L47.5094 161.545C46.6028 161.735 45.7199 162.087 44.9224 162.616L43.807 161.688L41.8276 163.673L42.7532 164.791ZM51.7292 166.238C53.2101 167.723 53.2101 170.127 51.7292 171.612C50.2482 173.097 47.8464 173.097 46.3702 171.612C44.894 170.127 44.8892 167.723 46.3702 166.238C47.8511 164.753 50.2482 164.753 51.7292 166.238Z" fill="#E0E0E0"/>
<path d="M223.388 100.969C222.752 101.945 222.32 103.016 222.092 104.12L220.336 104.287V107.695L222.092 107.862C222.32 108.966 222.752 110.037 223.388 111.013L222.267 112.369L224.669 114.778L226.022 113.654C226.995 114.292 228.063 114.725 229.164 114.954L229.33 116.715H232.729L232.895 114.954C233.996 114.725 235.064 114.292 236.037 113.654L237.39 114.778L239.792 112.369L238.672 111.013C239.308 110.037 239.74 108.966 239.968 107.862L241.724 107.695V104.287L239.972 104.12C239.745 103.016 239.313 101.945 238.677 100.969L239.797 99.6125L237.395 97.2039L236.042 98.3273C235.069 97.6894 234.001 97.2563 232.9 97.0278L232.734 95.2666H229.335L229.169 97.0278C228.068 97.2563 227 97.6894 226.027 98.3273L224.674 97.2039L222.272 99.6125L223.392 100.969H223.388ZM234.281 102.726C236.075 104.525 236.075 107.447 234.281 109.247C232.487 111.046 229.573 111.046 227.778 109.247C225.984 107.447 225.984 104.525 227.778 102.726C229.573 100.926 232.487 100.926 234.281 102.726Z" fill="#E0E0E0"/>
<path d="M83.0382 67.492H37.0667V100.493H83.0382V67.492Z" fill="#E0E0E0"/>
<path d="M81.2392 68.782H38.8609V99.2079H81.2392V68.782Z" fill="#FAFAFA"/>
<path d="M42.9431 103.706L41.8846 99.2412C43.3845 94.2099 48.2831 86.5844 50.4001 85.9798C53.9126 84.9755 60.9709 90.0782 60.9709 90.0782C60.9709 90.0782 67.9438 77.8736 70.189 76.8026C73.7727 75.0985 81.6854 83.3856 81.6854 83.3856L84.1726 93.8767L42.9431 103.706Z" fill="#EBEBEB"/>
<path d="M61.531 78.0068C61.8396 80.0489 60.4393 81.9576 58.403 82.267C56.3667 82.5764 54.4632 81.1722 54.1547 79.1302C53.8462 77.0882 55.2464 75.1794 57.2828 74.87C59.3191 74.5606 61.2225 75.9648 61.531 78.0068Z" fill="#EBEBEB"/>
<path d="M291.873 41.1454H235.468V81.6387H291.873V41.1454Z" fill="#E0E0E0"/>
<path d="M289.67 42.7257H237.67V80.0584H289.67V42.7257Z" fill="#FAFAFA"/>
<path d="M236.93 78.9731L237.162 73.3468C240.604 67.9061 248.915 60.5328 251.616 60.5233C256.102 60.509 262.742 68.8866 262.742 68.8866C262.742 68.8866 275.022 56.7962 278.031 56.2822C282.83 55.4634 289.423 67.8918 289.423 67.8918L288.882 81.1103L236.925 78.9683L236.93 78.9731Z" fill="#EBEBEB"/>
<path d="M267.403 54.8161C267.09 57.3294 264.807 59.1191 262.296 58.805C259.79 58.4908 258.005 56.2013 258.318 53.6832C258.632 51.1699 260.915 49.3802 263.426 49.6943C265.932 50.0085 267.717 52.2981 267.403 54.8161Z" fill="#EBEBEB"/>
<path d="M321.696 106.343H290.458V128.767H321.696V106.343Z" fill="#E0E0E0"/>
<path d="M320.476 107.219H291.678V127.892H320.476V107.219Z" fill="#FAFAFA"/>
<path d="M290.036 125.078L290.605 122.013C292.917 119.3 298.057 115.92 299.538 116.13C301.997 116.477 304.978 121.594 304.978 121.594C304.978 121.594 312.663 115.939 314.353 115.896C317.049 115.825 319.683 123.165 319.683 123.165L318.345 130.367L290.036 125.078Z" fill="#EBEBEB"/>
<path d="M308.642 114.25C308.272 115.606 306.881 116.401 305.529 116.03C304.181 115.658 303.383 114.264 303.753 112.907C304.124 111.551 305.514 110.756 306.867 111.127C308.22 111.498 309.013 112.893 308.642 114.25Z" fill="#EBEBEB"/>
<path d="M166.665 33.796C166.736 33.796 166.793 33.8531 166.788 33.9245C166.788 33.9674 166.765 34.0102 166.727 34.034L155.743 39.8365L155.221 40.1173L149.596 43.0828L130.244 43.7349C130.173 43.7349 130.116 43.6778 130.12 43.6064C130.12 43.5635 130.144 43.5207 130.182 43.4969L147.075 34.5767C147.232 34.491 147.403 34.4481 147.583 34.4434L153.659 34.2339L154.252 34.2149L166.665 33.8008V33.796Z" fill="#E6E6E6"/>
<path d="M158.667 36.0522C158.282 35.4239 153.65 36.076 148.129 37.5421C142.609 39.0082 138.266 40.7456 138.237 41.4834L140.506 50.0657C140.549 50.2275 140.71 50.318 140.872 50.2799L160.732 45.001C160.893 44.963 160.988 44.8011 160.95 44.6393L158.681 36.0522H158.662H158.667Z" fill="#EBEBEB"/>
<path d="M156.996 42.8209L157.475 44.6345L157.333 44.6726L156.934 43.5825L157.119 44.7249L156.882 44.7868L156.479 43.7015L156.664 44.8439L156.426 44.9058L156.023 43.8205L156.213 44.9629L156.07 45.001L155.591 43.1874C155.52 42.9018 155.624 42.6067 155.857 42.4306L153.688 34.2244L154.281 34.2053L156.417 42.283C156.697 42.3306 156.925 42.5401 156.996 42.8162V42.8209Z" fill="#E0E0E0"/>
<path d="M319.797 154.233H234.001C232.468 154.233 231.22 152.982 231.22 151.444V26.1229C231.22 24.5854 232.468 23.3335 234.001 23.3335H319.797C321.33 23.3335 322.579 24.5854 322.579 26.1229V151.439C322.579 152.977 321.33 154.229 319.797 154.229V154.233ZM234.006 23.4525C232.539 23.4525 231.343 24.652 231.343 26.1229V151.439C231.343 152.91 232.539 154.11 234.006 154.11H319.802C321.269 154.11 322.465 152.91 322.465 151.439V26.1229C322.465 24.652 321.269 23.4525 319.802 23.4525H234.006Z" fill="#E0E0E0"/>
<path d="M220.867 154.233H135.071C133.538 154.233 132.29 152.982 132.29 151.444V26.1229C132.29 24.5854 133.538 23.3335 135.071 23.3335H220.867C222.4 23.3335 223.649 24.5854 223.649 26.1229V151.439C223.649 152.977 222.4 154.229 220.867 154.229V154.233ZM135.071 23.4525C133.604 23.4525 132.408 24.652 132.408 26.1229V151.439C132.408 152.91 133.604 154.11 135.071 154.11H220.867C222.334 154.11 223.53 152.91 223.53 151.439V26.1229C223.53 24.652 222.334 23.4525 220.867 23.4525H135.071Z" fill="#E0E0E0"/>
<path d="M121.994 154.233H36.2028C34.6696 154.233 33.4213 152.982 33.4213 151.444V26.1229C33.4213 24.5854 34.6696 23.3335 36.2028 23.3335H121.999C123.532 23.3335 124.78 24.5854 124.78 26.1229V151.439C124.78 152.977 123.532 154.229 121.999 154.229L121.994 154.233ZM36.2028 23.4525C34.7361 23.4525 33.5399 24.652 33.5399 26.1229V151.439C33.5399 152.91 34.7361 154.11 36.2028 154.11H121.999C123.466 154.11 124.662 152.91 124.662 151.439V26.1229C124.662 24.652 123.466 23.4525 121.999 23.4525H36.2028Z" fill="#E0E0E0"/>
<path d="M356 183.303H0V183.36H356V183.303Z" fill="#E0E0E0"/>
<path d="M336.71 197.283H310.256V197.483H336.71V197.283Z" fill="#EBEBEB"/>
<path d="M241.923 199.458H234.979V199.658H241.923V199.458Z" fill="#EBEBEB"/>
<path d="M53.7845 191.19H19.2905V191.39H53.7845V191.19Z" fill="#EBEBEB"/>
<path d="M65.9597 191.19H60.8997V191.39H65.9597V191.19Z" fill="#EBEBEB"/>
<path d="M157.21 194.574H82.3974V194.774H157.21V194.574Z" fill="#EBEBEB"/>
<path d="M341.746 213.058C341.746 214.814 267.584 216.237 176.101 216.237C84.6188 216.237 10.4569 214.814 10.4569 213.058C10.4569 211.301 84.6188 209.878 176.101 209.878C267.584 209.878 341.746 211.301 341.746 213.058Z" fill="#F5F5F5"/>
<path d="M49.9824 189.957L47.8891 189.662C48.2594 187.044 50.4428 182.089 56.0296 182.089C62.6418 182.089 65.9359 185.916 66.2635 189.719L64.1702 189.9C63.9281 187.058 61.3079 184.188 56.0249 184.188C50.7419 184.188 50.0346 189.724 49.9871 189.957H49.9824Z" fill="#263238"/>
<path d="M74.4799 188.11H40.4653C38.6041 188.11 37.0952 189.624 37.0952 191.49V209.131C37.0952 210.997 38.6041 212.51 40.4653 212.51H74.4799C76.3412 212.51 77.8501 210.997 77.8501 209.131V191.49C77.8501 189.624 76.3412 188.11 74.4799 188.11Z" fill="#263238"/>
<path opacity="0.2" d="M74.4799 188.11H40.4653C38.6041 188.11 37.0952 189.624 37.0952 191.49V209.131C37.0952 210.997 38.6041 212.51 40.4653 212.51H74.4799C76.3412 212.51 77.8501 210.997 77.8501 209.131V191.49C77.8501 189.624 76.3412 188.11 74.4799 188.11Z" fill="white"/>
<path d="M66.2777 212.886C37.4654 212.886 36.0699 193.07 36.0699 192.861L37.2423 190.567C37.2898 191.3 39.5587 210.773 66.3014 210.773C77.309 210.773 86.807 210.773 87.7706 208.674C88.6155 206.817 84.4907 202.052 77.8738 194.417V191.461C86.3039 201.196 91.079 206.432 89.6788 209.521C88.1978 212.762 81.8325 212.886 66.2825 212.886H66.2777Z" fill="#263238"/>
<path d="M310.707 197.116H308.049V205.879H310.707V197.116Z" fill="#263238"/>
<path d="M309.345 198.525C305.211 198.525 301.143 197.502 297.497 195.541L298.755 193.194C309.73 199.073 323.376 194.922 329.238 183.917C332.091 178.562 332.675 172.279 330.857 166.486C330.145 164.191 329.063 162.026 327.662 160.079C325.655 157.28 323.034 154.981 320.001 153.348L321.254 151.001C322.65 151.754 323.979 152.634 325.213 153.634C326.96 155.047 328.507 156.69 329.817 158.517C331.389 160.698 332.594 163.116 333.392 165.681C337.573 178.986 330.211 193.17 316.944 197.364C314.486 198.14 311.922 198.535 309.345 198.535V198.525Z" fill="#263238"/>
<g opacity="0.3">
<path d="M309.345 198.525C305.211 198.525 301.143 197.502 297.497 195.541L298.755 193.194C309.73 199.073 323.376 194.922 329.238 183.917C332.091 178.562 332.675 172.279 330.857 166.486C330.145 164.191 329.063 162.026 327.662 160.079C325.655 157.28 323.034 154.981 320.001 153.348L321.254 151.001C322.65 151.754 323.979 152.634 325.213 153.634C326.96 155.047 328.507 156.69 329.817 158.517C331.389 160.698 332.594 163.116 333.392 165.681C337.573 178.986 330.211 193.17 316.944 197.364C314.486 198.14 311.922 198.535 309.345 198.535V198.525Z" fill="white"/>
</g>
<path d="M296.643 197.764C296.534 197.764 296.425 197.74 296.33 197.683C296.016 197.507 295.893 197.116 296.059 196.793L321.534 149.136C321.705 148.812 322.109 148.688 322.432 148.859C322.754 149.031 322.878 149.435 322.707 149.759L297.227 197.397C297.113 197.616 296.89 197.754 296.643 197.759V197.764Z" fill="#263238"/>
<g opacity="0.4">
<path d="M296.643 197.764C296.534 197.764 296.425 197.74 296.33 197.683C296.016 197.507 295.893 197.116 296.059 196.793L321.534 149.136C321.705 148.812 322.109 148.688 322.432 148.859C322.754 149.031 322.878 149.435 322.707 149.759L297.227 197.397C297.113 197.616 296.89 197.754 296.643 197.759V197.764Z" fill="white"/>
</g>
<path d="M304.522 205.232H314.234C314.884 205.232 315.411 205.761 315.411 206.413V208.588H303.345V206.413C303.345 205.761 303.872 205.232 304.518 205.232H304.522Z" fill="#263238"/>
<path d="M310.375 153.815C321.088 154.367 329.328 163.525 328.783 174.268C328.232 185.012 319.099 193.275 308.386 192.728C297.673 192.175 289.433 183.017 289.979 172.274C290.529 161.526 299.662 153.267 310.375 153.815Z" fill="#263238"/>
<path opacity="0.2" d="M315.449 154.781C315.729 160.64 313.854 166.967 309.748 172.402C305.201 178.419 298.864 182.084 292.547 183.008C287.202 173.673 290.415 161.759 299.719 156.399C304.499 153.648 310.214 153.058 315.449 154.781Z" fill="white"/>
<g opacity="0.3">
<path d="M304.522 205.232H314.234C314.884 205.232 315.411 205.761 315.411 206.413V208.588H303.345V206.413C303.345 205.761 303.872 205.232 304.518 205.232H304.522Z" fill="white"/>
</g>
<path d="M299.282 207.95H319.479C320.239 207.95 320.851 208.564 320.851 209.326V211.587H297.91V209.326C297.91 208.564 298.523 207.95 299.282 207.95Z" fill="#263238"/>
<g opacity="0.4">
<path d="M299.282 207.95H319.479C320.239 207.95 320.851 208.564 320.851 209.326V211.587H297.91V209.326C297.91 208.564 298.523 207.95 299.282 207.95Z" fill="white"/>
</g>
<path d="M299.538 80.7343C303.407 86.0037 302.287 93.4197 297.037 97.2991C292.983 100.298 287.657 100.298 283.656 97.7228L280.238 98.6795L280.647 94.9429C280.609 94.8906 280.561 94.843 280.523 94.7906C276.655 89.5213 277.775 82.1052 283.025 78.2258C288.279 74.3464 295.675 75.4698 299.543 80.7343H299.538Z" fill="#EB0029"/>
<path opacity="0.7" d="M299.538 80.7343C303.407 86.0037 302.287 93.4197 297.037 97.2991C292.983 100.298 287.657 100.298 283.656 97.7228L280.238 98.6795L280.647 94.9429C280.609 94.8906 280.561 94.843 280.523 94.7906C276.655 89.5213 277.775 82.1052 283.025 78.2258C288.279 74.3464 295.675 75.4698 299.543 80.7343H299.538Z" fill="white"/>
<path d="M300.303 79.5824C300.265 79.5824 300.227 79.5634 300.203 79.5301C298.129 76.4742 294.455 74.5368 290.771 74.5368C290.672 74.5368 290.572 74.5368 290.468 74.5368C290.411 74.5416 290.349 74.4845 290.344 74.4226C290.344 74.356 290.392 74.3036 290.458 74.2988C294.317 74.1846 298.224 76.1838 300.398 79.392C300.436 79.4444 300.421 79.5206 300.364 79.5586C300.345 79.5729 300.322 79.5777 300.298 79.5777L300.303 79.5824ZM287.026 74.9272C287.558 74.7225 288.137 74.632 288.702 74.6558C288.768 74.6606 288.825 74.6082 288.825 74.5416C288.825 74.475 288.778 74.4226 288.711 74.4178C288.108 74.3893 287.501 74.4892 286.941 74.7082C286.879 74.732 286.851 74.7986 286.874 74.8605C286.893 74.9081 286.936 74.9367 286.983 74.9367C286.998 74.9367 287.012 74.9367 287.026 74.9272Z" fill="#263238"/>
<path opacity="0.7" d="M300.303 79.5824C300.265 79.5824 300.227 79.5634 300.203 79.5301C298.129 76.4742 294.455 74.5368 290.771 74.5368C290.672 74.5368 290.572 74.5368 290.468 74.5368C290.411 74.5416 290.349 74.4845 290.344 74.4226C290.344 74.356 290.392 74.3036 290.458 74.2988C294.317 74.1846 298.224 76.1838 300.398 79.392C300.436 79.4444 300.421 79.5206 300.364 79.5586C300.345 79.5729 300.322 79.5777 300.298 79.5777L300.303 79.5824ZM287.026 74.9272C287.558 74.7225 288.137 74.632 288.702 74.6558C288.768 74.6606 288.825 74.6082 288.825 74.5416C288.825 74.475 288.778 74.4226 288.711 74.4178C288.108 74.3893 287.501 74.4892 286.941 74.7082C286.879 74.732 286.851 74.7986 286.874 74.8605C286.893 74.9081 286.936 74.9367 286.983 74.9367C286.998 74.9367 287.012 74.9367 287.026 74.9272Z" fill="white"/>
<path d="M287.358 87.3936C287.358 88.2742 286.646 88.9835 285.773 88.9835C284.9 88.9835 284.188 88.2695 284.188 87.3936C284.188 86.5178 284.9 85.8038 285.773 85.8038C286.646 85.8038 287.358 86.5178 287.358 87.3936Z" fill="#263238"/>
<path d="M290.629 88.9835C291.505 88.9835 292.214 88.2717 292.214 87.3936C292.214 86.5156 291.505 85.8038 290.629 85.8038C289.753 85.8038 289.044 86.5156 289.044 87.3936C289.044 88.2717 289.753 88.9835 290.629 88.9835Z" fill="#263238"/>
<path d="M295.485 88.9835C296.36 88.9835 297.07 88.2717 297.07 87.3936C297.07 86.5156 296.36 85.8038 295.485 85.8038C294.609 85.8038 293.899 86.5156 293.899 87.3936C293.899 88.2717 294.609 88.9835 295.485 88.9835Z" fill="#263238"/>
<path d="M120.788 70.786C117.133 66.1307 110.275 65.2358 105.476 68.782C101.769 71.519 100.387 76.1029 101.626 80.1917L99.8936 82.8954L103.306 83.4857C103.344 83.5333 103.373 83.5856 103.411 83.6285C107.066 88.2837 113.92 89.1786 118.724 85.6324C123.523 82.0862 124.448 75.4413 120.793 70.786H120.788Z" fill="#EB0029"/>
<path opacity="0.7" d="M120.788 70.786C117.133 66.1307 110.275 65.2358 105.476 68.782C101.769 71.519 100.387 76.1029 101.626 80.1917L99.8936 82.8954L103.306 83.4857C103.344 83.5333 103.373 83.5856 103.411 83.6285C107.066 88.2837 113.92 89.1786 118.724 85.6324C123.523 82.0862 124.448 75.4413 120.793 70.786H120.788Z" fill="white"/>
<path d="M124.021 80.2965C124.021 80.2965 123.997 80.2965 123.983 80.2917C123.921 80.2727 123.888 80.2013 123.907 80.1394C124.984 76.9169 124.244 73.1422 122.023 70.5242C121.98 70.4766 121.985 70.4004 122.037 70.3576C122.084 70.3148 122.16 70.3195 122.203 70.3719C124.477 73.0518 125.236 76.9169 124.13 80.2156C124.116 80.2632 124.068 80.2965 124.016 80.2965H124.021ZM122.863 83.1477C123.2 82.7193 123.447 82.2148 123.579 81.6911C123.594 81.6293 123.556 81.5626 123.494 81.5484C123.428 81.5293 123.366 81.5722 123.352 81.634C123.228 82.1243 122.996 82.6003 122.678 83.0001C122.635 83.0525 122.644 83.1287 122.697 83.1668C122.72 83.1858 122.744 83.1906 122.768 83.1906C122.801 83.1906 122.839 83.1763 122.863 83.143V83.1477Z" fill="#263238"/>
<path opacity="0.7" d="M124.021 80.2965C124.021 80.2965 123.997 80.2965 123.983 80.2917C123.921 80.2727 123.888 80.2013 123.907 80.1394C124.984 76.9169 124.244 73.1422 122.023 70.5242C121.98 70.4766 121.985 70.4004 122.037 70.3576C122.084 70.3148 122.16 70.3195 122.203 70.3719C124.477 73.0518 125.236 76.9169 124.13 80.2156C124.116 80.2632 124.068 80.2965 124.016 80.2965H124.021ZM122.863 83.1477C123.2 82.7193 123.447 82.2148 123.579 81.6911C123.594 81.6293 123.556 81.5626 123.494 81.5484C123.428 81.5293 123.366 81.5722 123.352 81.634C123.228 82.1243 122.996 82.6003 122.678 83.0001C122.635 83.0525 122.644 83.1287 122.697 83.1668C122.72 83.1858 122.744 83.1906 122.768 83.1906C122.801 83.1906 122.839 83.1763 122.863 83.143V83.1477Z" fill="white"/>
<path d="M114.703 76.9692C114.703 77.7546 115.358 78.3924 116.17 78.3924C116.982 78.3924 117.637 77.7546 117.637 76.9692C117.637 76.1838 116.982 75.546 116.17 75.546C115.358 75.546 114.703 76.1838 114.703 76.9692Z" fill="#263238"/>
<path d="M110.213 76.9692C110.213 77.7546 110.868 78.3924 111.68 78.3924C112.491 78.3924 113.146 77.7546 113.146 76.9692C113.146 76.1838 112.491 75.546 111.68 75.546C110.868 75.546 110.213 76.1838 110.213 76.9692Z" fill="#263238"/>
<path d="M105.723 76.9692C105.723 77.7546 106.378 78.3924 107.189 78.3924C108.001 78.3924 108.656 77.7546 108.656 76.9692C108.656 76.1838 108.001 75.546 107.189 75.546C106.378 75.546 105.723 76.1838 105.723 76.9692Z" fill="#263238"/>
<path d="M202.175 26.0133C193.958 25.9181 187.218 32.5203 187.123 40.7598C187.071 45.2295 189.022 49.4897 192.439 52.3647C193.066 52.8835 194.029 53.5119 194.006 54.8161C194.006 54.8542 194.072 58.0767 194.072 58.0767H209.722C209.722 58.0767 209.788 54.7304 209.788 54.6923C209.788 53.5452 210.676 53.0501 211.326 52.5313C214.787 49.7467 216.828 45.5579 216.88 41.1073C216.975 32.8677 210.391 26.1085 202.175 26.0133Z" fill="#F2C94C"/>
<path opacity="0.4" d="M202.175 26.0133C193.958 25.9181 187.218 32.5203 187.123 40.7598C187.071 45.2295 189.022 49.4897 192.439 52.3647C193.066 52.8835 194.029 53.5119 194.006 54.8161C194.006 54.8542 194.072 58.0767 194.072 58.0767H209.722C209.722 58.0767 209.788 54.7304 209.788 54.6923C209.788 53.5452 210.676 53.0501 211.326 52.5313C214.787 49.7467 216.828 45.5579 216.88 41.1073C216.975 32.8677 210.391 26.1085 202.175 26.0133Z" fill="white"/>
<path opacity="0.2" d="M209.57 32.4394C209.57 35.343 206.181 37.7039 201.975 37.7039C197.77 37.7039 194.381 35.343 194.381 32.4394C194.381 29.5358 197.77 27.17 201.975 27.17C206.181 27.17 209.57 29.531 209.57 32.4394Z" fill="white"/>
<path d="M190.56 46.6622C189.245 44.4012 188.727 41.7261 189.112 39.1366C189.492 36.5472 190.754 34.1339 192.667 32.3489L192.829 32.525C190.958 34.2719 189.72 36.6329 189.345 39.17C188.97 41.707 189.473 44.325 190.764 46.5432L190.56 46.6622Z" fill="white"/>
<path d="M206.323 54.8875C205.564 52.8788 204.933 50.8177 204.429 48.709C203.66 49.3849 202.82 49.7324 202.009 49.6896C201.354 49.6562 200.694 49.3802 200.02 48.8518C199.92 50.8938 199.578 52.9216 199.009 54.8827L198.553 54.7494C199.151 52.7074 199.488 50.5892 199.564 48.4615C199.455 48.3568 199.346 48.252 199.237 48.133C197.571 46.3956 196.792 44.2394 197.153 42.3734C197.29 41.6642 197.718 40.974 198.363 40.974C198.952 40.9883 199.388 41.569 199.588 42.6114C199.944 44.4726 200.096 46.3671 200.044 48.2568C200.737 48.8708 201.392 49.185 202.032 49.2183C202.996 49.2659 203.812 48.6614 204.306 48.1806C203.941 46.5765 203.656 44.9486 203.447 43.3016C203.371 42.7066 203.314 42.1259 203.447 41.5595C203.604 40.8693 204.05 40.3457 204.581 40.2314C205.497 40.0315 206.243 41.0168 206.499 42.0878C207.007 44.2203 206.366 46.6527 204.876 48.2806C204.861 48.2949 204.852 48.3092 204.838 48.3234C205.346 50.5035 205.991 52.6455 206.779 54.7209L206.333 54.8875H206.323ZM198.339 41.4452C197.993 41.4452 197.713 41.9546 197.613 42.4591C197.281 44.1775 198.012 46.1719 199.569 47.7998C199.588 46.0958 199.436 44.3822 199.113 42.6971C199.056 42.4068 198.838 41.4595 198.344 41.4452H198.335H198.339ZM204.8 40.6789C204.757 40.6789 204.714 40.6789 204.672 40.6932C204.273 40.7788 203.998 41.2406 203.903 41.6594C203.789 42.1497 203.846 42.6828 203.912 43.2302C204.107 44.7487 204.368 46.2576 204.695 47.7427C205.934 46.2481 206.471 44.0537 206.029 42.1878C205.844 41.4119 205.346 40.6741 204.8 40.6741V40.6789Z" fill="#263238"/>
<path d="M210.752 57.1295H193.118C192.699 57.1295 192.359 57.4705 192.359 57.8911V58.2624C192.359 58.683 192.699 59.024 193.118 59.024H210.752C211.171 59.024 211.511 58.683 211.511 58.2624V57.8911C211.511 57.4705 211.171 57.1295 210.752 57.1295Z" fill="#263238"/>
<path opacity="0.3" d="M210.752 57.1295H193.118C192.699 57.1295 192.359 57.4705 192.359 57.8911V58.2624C192.359 58.683 192.699 59.024 193.118 59.024H210.752C211.171 59.024 211.511 58.683 211.511 58.2624V57.8911C211.511 57.4705 211.171 57.1295 210.752 57.1295Z" fill="white"/>
<path d="M210.439 58.8525H193.427C193.007 58.8525 192.667 59.1935 192.667 59.6141V59.9235C192.667 60.3442 193.007 60.6851 193.427 60.6851H210.439C210.858 60.6851 211.198 60.3442 211.198 59.9235V59.6141C211.198 59.1935 210.858 58.8525 210.439 58.8525Z" fill="#263238"/>
<path opacity="0.3" d="M210.439 58.8525H193.427C193.007 58.8525 192.667 59.1935 192.667 59.6141V59.9235C192.667 60.3442 193.007 60.6851 193.427 60.6851H210.439C210.858 60.6851 211.198 60.3442 211.198 59.9235V59.6141C211.198 59.1935 210.858 58.8525 210.439 58.8525Z" fill="white"/>
<path d="M196.056 63.2984C197.229 65.4499 199.702 67.7205 202.142 67.5777C204.586 67.4349 206.879 65.35 207.79 63.0747L196.056 63.2984Z" fill="#263238"/>
<path d="M209.304 62.156H194.556C194.137 62.156 193.797 62.497 193.797 62.9176V63.227C193.797 63.6476 194.137 63.9886 194.556 63.9886H209.304C209.724 63.9886 210.064 63.6476 210.064 63.227V62.9176C210.064 62.497 209.724 62.156 209.304 62.156Z" fill="#263238"/>
<path opacity="0.3" d="M209.304 62.156H194.556C194.137 62.156 193.797 62.497 193.797 62.9176V63.227C193.797 63.6476 194.137 63.9886 194.556 63.9886H209.304C209.724 63.9886 210.064 63.6476 210.064 63.227V62.9176C210.064 62.497 209.724 62.156 209.304 62.156Z" fill="white"/>
<path d="M210.192 60.4757H193.678C193.259 60.4757 192.919 60.8167 192.919 61.2373V61.5467C192.919 61.9673 193.259 62.3083 193.678 62.3083H210.192C210.611 62.3083 210.951 61.9673 210.951 61.5467V61.2373C210.951 60.8167 210.611 60.4757 210.192 60.4757Z" fill="#263238"/>
<path opacity="0.3" d="M210.192 60.4757H193.678C193.259 60.4757 192.919 60.8167 192.919 61.2373V61.5467C192.919 61.9673 193.259 62.3083 193.678 62.3083H210.192C210.611 62.3083 210.951 61.9673 210.951 61.5467V61.2373C210.951 60.8167 210.611 60.4757 210.192 60.4757Z" fill="white"/>
<path d="M193.74 20.6013C194.87 21.7341 196.004 22.8718 197.134 24.0047C197.295 24.1665 197.547 23.9142 197.385 23.7524C196.256 22.6195 195.121 21.4819 193.992 20.349C193.83 20.1871 193.579 20.4394 193.74 20.6013Z" fill="#263238"/>
<path d="M202.588 22.6671V16.2315C202.588 16.0031 202.232 16.0031 202.232 16.2315V22.6671C202.232 22.8955 202.588 22.8955 202.588 22.6671Z" fill="#263238"/>
<path d="M207.292 24.2807C208.516 23.0527 209.736 21.8293 210.961 20.6013C211.122 20.4394 210.871 20.1871 210.709 20.349C209.485 21.5771 208.265 22.8004 207.04 24.0285C206.879 24.1903 207.13 24.4426 207.292 24.2807Z" fill="#263238"/>
<path d="M281.202 189.6H74.7268V211.768H281.202V189.6Z" fill="#263238"/>
<path d="M145.666 191.918H74.7268V209.45H145.666V191.918Z" fill="white"/>
<path d="M74.7268 196.241C96.3051 196.007 120.508 196.007 142.087 196.241C120.508 196.474 96.3051 196.474 74.7268 196.241Z" fill="#263238"/>
<path d="M74.7268 198.321C96.3051 198.087 120.508 198.087 142.087 198.321C120.508 198.554 96.3051 198.554 74.7268 198.321Z" fill="#263238"/>
<path d="M74.7268 200.396C96.3051 200.163 120.508 200.163 142.087 200.396C120.508 200.629 96.3051 200.629 74.7268 200.396Z" fill="#263238"/>
<path d="M74.7268 202.476C96.3051 202.243 120.508 202.243 142.087 202.476C120.508 202.709 96.3051 202.709 74.7268 202.476Z" fill="#263238"/>
<path d="M74.7268 204.556C96.3051 204.323 120.508 204.323 142.087 204.556C120.508 204.789 96.3051 204.789 74.7268 204.556Z" fill="#263238"/>
<path d="M74.7268 206.636C96.3051 206.403 120.508 206.403 142.087 206.636C120.508 206.87 96.3051 206.87 74.7268 206.636Z" fill="#263238"/>
<path d="M74.7268 194.16C96.3051 193.927 120.508 193.927 142.087 194.16C120.508 194.394 96.3051 194.394 74.7268 194.16Z" fill="#263238"/>
<path opacity="0.3" d="M170.125 189.6H163.793V211.768H170.125V189.6Z" fill="white"/>
<path opacity="0.3" d="M266.706 189.6H260.374V211.768H266.706V189.6Z" fill="white"/>
<path opacity="0.2" d="M149.686 189.6H74.7268V211.768H149.686V189.6Z" fill="black"/>
<path d="M225.87 142.819H105.893V158.608H225.87V142.819Z" fill="#263238"/>
<path d="M156.431 144.471H105.893V156.961H156.431V144.471Z" fill="white"/>
<path d="M105.893 147.546C121.263 147.312 138.512 147.312 153.882 147.546C138.512 147.779 121.263 147.779 105.893 147.546Z" fill="#263238"/>
<path d="M105.893 149.026C121.263 148.793 138.512 148.793 153.882 149.026C138.512 149.259 121.263 149.259 105.893 149.026Z" fill="#263238"/>
<path d="M105.893 150.511C121.263 150.278 138.512 150.278 153.882 150.511C138.512 150.744 121.263 150.744 105.893 150.511Z" fill="#263238"/>
<path d="M105.893 151.992C121.263 151.758 138.512 151.758 153.882 151.992C138.512 152.225 121.263 152.225 105.893 151.992Z" fill="#263238"/>
<path d="M105.893 153.472C121.263 153.239 138.512 153.239 153.882 153.472C138.512 153.705 121.263 153.705 105.893 153.472Z" fill="#263238"/>
<path d="M105.893 154.952C121.263 154.719 138.512 154.719 153.882 154.952C138.512 155.186 121.263 155.186 105.893 154.952Z" fill="#263238"/>
<path d="M105.893 146.065C121.263 145.832 138.512 145.832 153.882 146.065C138.512 146.299 121.263 146.299 105.893 146.065Z" fill="#263238"/>
<path opacity="0.3" d="M220.995 142.819H216.481V158.608H220.995V142.819Z" fill="black"/>
<path opacity="0.3" d="M173.011 142.819H168.497V158.608H173.011V142.819Z" fill="black"/>
<path opacity="0.2" d="M159.298 142.819H105.893V158.608H159.298V142.819Z" fill="black"/>
<path opacity="0.3" d="M211.924 148.393H177.022V153.015H211.924V148.393Z" fill="black"/>
<path d="M230.527 180.314H62.1245V189.605H230.527V180.314Z" fill="#263238"/>
<path d="M132.883 181.513H62.1244V188.406H132.883V181.513Z" fill="white"/>
<path d="M62.6085 182.879C84.1869 182.646 108.39 182.646 129.968 182.879C108.39 183.112 84.1869 183.112 62.6085 182.879Z" fill="#263238"/>
<path d="M62.6085 184.959C84.1869 184.726 108.39 184.726 129.968 184.959C108.39 185.193 84.1869 185.193 62.6085 184.959Z" fill="#263238"/>
<path d="M62.6085 187.035C84.1869 186.801 108.39 186.801 129.968 187.035C108.39 187.268 84.1869 187.268 62.6085 187.035Z" fill="#263238"/>
<path opacity="0.3" d="M152.99 180.314H151.21V189.605H152.99V180.314Z" fill="white"/>
<path opacity="0.3" d="M156.303 180.314H154.523V189.605H156.303V180.314Z" fill="white"/>
<path opacity="0.3" d="M219.192 180.314H217.412V189.605H219.192V180.314Z" fill="white"/>
<path opacity="0.3" d="M222.505 180.314H220.725V189.605H222.505V180.314Z" fill="white"/>
<path opacity="0.2" d="M134.601 180.309H62.1149V189.6H134.601V180.309Z" fill="black"/>
<path d="M263.217 158.527H94.8148V167.819H263.217V158.527Z" fill="#263238"/>
<path d="M165.573 159.727H94.8147V166.619H165.573V159.727Z" fill="white"/>
<path d="M95.2988 161.093C116.877 160.859 141.08 160.859 162.659 161.093C141.08 161.326 116.877 161.326 95.2988 161.093Z" fill="#263238"/>
<path d="M95.2988 163.173C116.877 162.94 141.08 162.94 162.659 163.173C141.08 163.406 116.877 163.406 95.2988 163.173Z" fill="#263238"/>
<path d="M95.2988 165.253C116.877 165.02 141.08 165.02 162.659 165.253C141.08 165.486 116.877 165.486 95.2988 165.253Z" fill="#263238"/>
<path opacity="0.3" d="M185.68 158.527H183.9V167.819H185.68V158.527Z" fill="white"/>
<path opacity="0.3" d="M188.993 158.527H187.213V167.819H188.993V158.527Z" fill="white"/>
<path opacity="0.3" d="M251.887 158.527H250.107V167.819H251.887V158.527Z" fill="white"/>
<path opacity="0.3" d="M255.2 158.527H253.42V167.819H255.2V158.527Z" fill="white"/>
<path opacity="0.2" d="M167.292 158.522H94.8052V167.814H167.292V158.522Z" fill="black"/>
<path d="M237.485 167.728H69.083V180.404H237.485V167.728Z" fill="#263238"/>
<path opacity="0.4" d="M237.485 167.728H69.083V180.404H237.485V167.728Z" fill="white"/>
<path d="M237.485 169.185H166.727V179.204H237.485V169.185Z" fill="white"/>
<path d="M237.001 173.678C215.423 173.911 191.219 173.911 169.641 173.678C191.219 173.445 215.423 173.445 237.001 173.678Z" fill="#263238"/>
<path d="M237.001 175.758C215.423 175.991 191.219 175.991 169.641 175.758C191.219 175.525 215.423 175.525 237.001 175.758Z" fill="#263238"/>
<path d="M237.001 177.838C215.423 178.072 191.219 178.072 169.641 177.838C191.219 177.605 215.423 177.605 237.001 177.838Z" fill="#263238"/>
<path d="M237.001 171.522C215.423 171.755 191.219 171.755 169.641 171.522C191.219 171.289 215.423 171.289 237.001 171.522Z" fill="#263238"/>
<path opacity="0.2" d="M237.49 167.723H165.004V180.399H237.49V167.723Z" fill="black"/>
<path opacity="0.4" d="M150.574 171.522H84.1347V175.758H150.574V171.522Z" fill="white"/>
<path d="M264.783 168.142C264.783 168.142 215.361 158.061 213.329 168.385C210.429 183.117 246.129 191.914 264.973 190.757C283.817 189.596 264.783 168.147 264.783 168.147V168.142Z" fill="#263238"/>
<path opacity="0.2" d="M264.783 168.142C264.783 168.142 215.361 158.061 213.329 168.385C210.429 183.117 246.129 191.914 264.973 190.757C283.817 189.596 264.783 168.147 264.783 168.147V168.142Z" fill="black"/>
<path opacity="0.2" d="M229.525 171.07L253.007 185.078L250.059 189.553C250.059 189.553 251.749 191.914 254.616 184.426L240.077 175.396C240.077 175.396 244.529 174.816 244.396 174.121C244.173 172.978 234.305 171.079 229.8 170.227C229.568 170.151 229.316 170.279 229.24 170.513C229.164 170.746 229.292 170.998 229.525 171.074V171.07Z" fill="black"/>
<path opacity="0.2" d="M253.795 183.398L249.988 190.014C254.943 190.733 259.965 190.981 264.973 190.752C266.62 190.695 268.244 190.348 269.763 189.734L271.092 187.116L267.888 181.104L253.795 183.398Z" fill="black"/>
<path d="M246.086 181.042L256.534 187.258L254.844 192.304L242.645 187.235L246.086 181.042Z" fill="#EBB373"/>
<path d="M262.225 188.763L261.323 192.38C261.323 192.38 260.573 192.561 260.359 193.323C260.241 193.751 260.587 194.912 260.587 194.912L258.185 204.88C258.185 204.88 257.502 204.718 257.236 204.532C256.909 204.309 256.643 204.08 256.429 203.847C255.674 203.024 255.561 201.805 255.508 200.901C255.418 199.382 254.417 194.979 254.417 194.979C254.417 194.979 254.051 193.832 252.803 192.851C252.11 192.304 251.773 191.595 251.825 191.152C251.925 190.243 252.565 189.886 253.41 189.962L254.393 190.053C255.076 189.51 255.266 188.62 254.796 187.777C254.796 187.777 254.155 185.64 255.067 185.978C255.589 186.168 257.882 187.116 259.714 187.806C260.141 187.968 260.545 188.12 260.901 188.253C261.688 188.553 262.23 188.758 262.23 188.758L262.225 188.763Z" fill="#263238"/>
<path d="M254.858 197.335C254.83 197.283 254.839 197.212 254.886 197.169C255.091 196.969 255.352 196.821 255.641 196.75C255.798 196.712 255.874 196.959 255.717 196.997C255.456 197.059 255.228 197.188 255.048 197.364C254.986 197.421 254.896 197.411 254.853 197.34L254.858 197.335Z" fill="#263238"/>
<path d="M254.63 196.464C254.602 196.412 254.616 196.341 254.659 196.298C254.863 196.098 255.124 195.95 255.413 195.879C255.57 195.841 255.646 196.088 255.489 196.126C255.228 196.188 255 196.317 254.82 196.493C254.758 196.55 254.668 196.54 254.625 196.469L254.63 196.464Z" fill="#263238"/>
<path d="M254.436 195.579C254.407 195.527 254.417 195.455 254.464 195.412C254.668 195.212 254.929 195.065 255.219 194.993C255.375 194.955 255.451 195.203 255.295 195.241C255.034 195.303 254.806 195.431 254.625 195.607C254.564 195.665 254.474 195.655 254.431 195.584L254.436 195.579Z" fill="#263238"/>
<path opacity="0.2" d="M260.896 188.258C261.684 188.558 262.225 188.763 262.225 188.763L261.323 192.38C261.323 192.38 260.573 192.561 260.359 193.323C260.241 193.751 260.587 194.912 260.587 194.912L258.185 204.88C258.185 204.88 257.502 204.718 257.236 204.532C257.084 204.432 256.951 204.328 256.828 204.223L260.706 188.182C260.772 188.206 260.844 188.234 260.905 188.258H260.896Z" fill="white"/>
<path d="M253.045 196.331C252.793 196.331 252.551 196.264 252.361 196.136C252.209 196.036 252.057 195.85 252.095 195.645C252.133 195.446 252.319 195.331 252.475 195.269C252.784 195.146 253.149 195.112 253.557 195.174C253.913 195.227 254.26 195.346 254.597 195.455L254.701 195.493L254.616 195.56C254.417 195.712 253.738 196.217 253.377 196.293C253.268 196.317 253.159 196.331 253.05 196.331H253.045ZM253.163 195.26C252.926 195.26 252.708 195.298 252.513 195.374C252.413 195.412 252.238 195.507 252.209 195.66C252.181 195.807 252.304 195.95 252.423 196.031C252.67 196.198 253.007 196.25 253.344 196.174C253.643 196.107 254.208 195.707 254.445 195.526C254.146 195.427 253.842 195.331 253.534 195.284C253.406 195.265 253.282 195.255 253.159 195.255L253.163 195.26Z" fill="#263238"/>
<path d="M254.64 195.588L254.549 195.522C254.265 195.308 253.975 195.089 253.728 194.827C253.444 194.527 253.263 194.208 253.187 193.88C253.149 193.718 253.135 193.499 253.282 193.356C253.429 193.208 253.667 193.227 253.837 193.294C254.141 193.413 254.402 193.684 254.545 194.037C254.687 194.384 254.659 195.227 254.649 195.479V195.593L254.64 195.588ZM253.572 193.361C253.491 193.361 253.415 193.38 253.358 193.437C253.249 193.546 253.273 193.741 253.296 193.851C253.368 194.156 253.538 194.455 253.804 194.741C254.018 194.97 254.274 195.165 254.521 195.355C254.535 194.874 254.521 194.313 254.421 194.079C254.288 193.761 254.056 193.513 253.781 193.404C253.714 193.38 253.638 193.361 253.567 193.361H253.572Z" fill="#263238"/>
<path d="M243.585 137.426C243.585 137.426 242.26 153.481 241.809 154.353C240.276 157.304 229.691 162.597 229.691 162.597L224.185 161.612L220.359 165.01L223.003 166.967L226.003 165.729C227.669 165.976 229.349 166.072 231.03 166.019C233.854 165.934 247.942 162.402 250.102 158.527C252.262 154.652 252.233 136.636 252.233 136.636L243.58 137.426H243.585Z" fill="#EBB373"/>
<path d="M252.67 143.452C252.67 143.452 256.462 129.272 251.108 125.526C245.754 121.78 242.156 141.224 242.156 141.224L252.67 143.452Z" fill="#263238"/>
<path opacity="0.5" d="M252.67 143.452C252.67 143.452 256.462 129.272 251.108 125.526C245.754 121.78 242.156 141.224 242.156 141.224L252.67 143.452Z" fill="white"/>
<path d="M250.107 169.256L249.599 150.625L249.247 125.107L260.151 122.394L267.788 122.322L280.704 126.354L281.14 132.604C281.14 132.604 280.742 161.378 280.837 162.245C280.955 163.306 284.23 169.88 284.23 169.88C270.593 173.421 249.912 170.208 250.097 169.251L250.107 169.256Z" fill="#263238"/>
<path opacity="0.2" d="M249.523 142.786L249.338 131.676L247.392 142.333L249.523 142.786Z" fill="black"/>
<path opacity="0.2" d="M272.81 143.852C272.468 143.795 271.082 143.385 271.082 143.385L274.234 132.556L269.354 144.452L272.53 145.613L272.805 143.852H272.81Z" fill="black"/>
<path d="M274.02 135.003C274.02 135.003 271.88 152.848 270.389 154.552C267.873 157.437 255.219 165.262 255.219 165.262L248.725 163.192C248.27 163.059 247.776 163.154 247.415 163.444L243.12 166.938L243.551 167.281C243.737 167.428 244.002 167.452 244.211 167.338L244.885 166.976L244.145 167.747L244.392 167.942C244.638 168.137 244.975 168.204 245.279 168.109L247.23 167.523L245.455 168.785C245.868 169.113 246.437 169.218 246.95 169.056L249.798 168.152C251.773 168.542 253.776 168.771 255.788 168.832C259.177 168.942 274.993 162.868 277.851 158.684C280.708 154.495 283.281 137.383 283.281 137.383L274.02 134.998V135.003Z" fill="#EBB373"/>
<path d="M282.873 146.57C282.873 146.57 286.381 130.353 281.026 126.602C275.672 122.856 271.082 143.381 271.082 143.381L282.873 146.57Z" fill="#263238"/>
<path opacity="0.5" d="M282.873 146.57C282.873 146.57 286.381 130.353 281.026 126.602C275.672 122.856 271.082 143.381 271.082 143.381L282.873 146.57Z" fill="white"/>
<path d="M240.59 168.309L250.472 168.018L260.958 167.709C260.976 168.494 260.127 169.151 259.059 169.18L248.583 169.489L242.588 169.665H242.559L225.88 170.16C224.821 170.184 223.952 169.58 223.933 168.804L240.59 168.314V168.309Z" fill="#263238"/>
<path d="M225.576 170.084L244.183 169.532C244.506 169.523 244.757 169.304 244.748 169.042C244.748 168.994 244.733 168.947 244.714 168.899L235.876 150.111C235.653 149.573 235.017 149.221 234.31 149.24L215.689 149.792C215.375 149.802 215.124 150.016 215.133 150.268C215.133 150.321 215.147 150.373 215.171 150.425L224.009 169.213C224.237 169.746 224.869 170.099 225.576 170.084Z" fill="#263238"/>
<path opacity="0.7" d="M215.689 149.792L234.31 149.24C235.017 149.221 235.653 149.573 235.876 150.111L244.382 168.19L250.477 168.009L260.962 167.7C260.981 168.485 260.132 169.142 259.064 169.17L248.588 169.48L242.593 169.656H242.564L225.884 170.151C225.547 170.16 225.239 170.099 224.959 169.994C224.522 169.861 224.166 169.58 224.009 169.208L215.171 150.421C215.147 150.373 215.133 150.321 215.133 150.264C215.124 150.011 215.375 149.797 215.689 149.788V149.792Z" fill="white"/>
<path d="M227.171 159.598C227.598 160.498 228.433 161.102 229.036 160.955C229.639 160.807 229.777 159.974 229.359 159.07C228.941 158.165 228.101 157.575 227.493 157.723C226.891 157.87 226.729 158.675 227.166 159.598H227.171Z" fill="white"/>
<g opacity="0.3">
<path d="M235.876 150.116L244.382 168.195L243.518 168.218L234.31 149.24C235.017 149.221 235.653 149.573 235.876 150.111V150.116Z" fill="black"/>
</g>
<path d="M268.115 123.679C268.115 123.679 266.141 119.757 267.418 113.264C266.635 112.898 267.669 111.274 267.636 110.622L259.467 116.734C259.847 118.743 259.462 122.718 259.173 124.407L262.325 127.278L268.111 123.679H268.115Z" fill="#EBB373"/>
<path opacity="0.2" d="M259.685 117.938L264.423 117.558C263.625 118.967 263.06 120.204 259.595 120.347C259.595 120.347 259.567 118.61 259.685 117.934V117.938Z" fill="black"/>
<path d="M256.42 98.5986C254.962 100.322 254.331 105.291 257.649 105.129C260.972 104.972 258.921 95.6379 256.42 98.5986Z" fill="#263238"/>
<path d="M270.085 107.843C268.248 113.069 267.318 116.058 263.862 117.996C249.404 123.879 250.975 99.046 262.158 97.6228C267.864 97.0516 271.922 102.611 270.085 107.843Z" fill="#EBB373"/>
<path d="M274.367 101.212C273.617 96.1139 265.358 96.3709 262.885 97.2849C262.514 97.4229 266.236 100.85 265.998 100.674L267.84 101.969C270.437 103.287 265.752 107.486 267.987 112.036C272.929 111.393 274.747 104.929 274.367 101.212Z" fill="#263238"/>
<path d="M270.921 112.879C269.492 115.549 264.309 116.253 265.657 112.131C266.715 108.076 272.995 108.1 270.921 112.879Z" fill="#EBB373"/>
<path d="M262.173 107.228C261.817 108.518 260.511 108.119 260.891 106.848C261.247 105.558 262.552 105.958 262.173 107.228Z" fill="#263238"/>
<path d="M256.667 105.791C256.311 107.081 255.005 106.681 255.385 105.41C255.741 104.12 257.046 104.52 256.667 105.791Z" fill="#263238"/>
<path d="M258.518 105.986C258.518 105.986 256.03 108.2 255.167 109.147C255.727 110.046 257.117 110.104 257.117 110.104L258.518 105.986Z" fill="#E4873E"/>
<path d="M264.109 105.025C264.019 105.034 263.924 104.996 263.862 104.915C263.165 103.958 262.192 103.992 262.182 103.992C261.128 103.292 263.321 103.14 264.29 104.606C264.413 104.763 264.304 105.006 264.109 105.025Z" fill="#263238"/>
<path opacity="0.2" d="M267.252 112.079C267.252 112.079 267.228 112.079 267.214 112.074C267.152 112.055 267.119 111.988 267.138 111.927C267.389 111.136 268.32 110.365 269.093 110.308C269.454 110.284 269.929 110.384 270.232 111.008C270.261 111.065 270.232 111.136 270.18 111.165C270.123 111.194 270.052 111.17 270.024 111.113C269.824 110.708 269.52 110.518 269.112 110.546C268.438 110.594 267.589 111.303 267.365 111.998C267.351 112.05 267.304 112.079 267.252 112.079Z" fill="black"/>
<path d="M255 102.826C254.82 102.735 254.815 102.449 255 102.354C256.277 101.655 257.345 102.235 257.398 102.254C257.697 102.411 257.45 102.887 257.151 102.726C257.008 102.497 255.978 102.521 255.005 102.826H255Z" fill="#263238"/>
<path d="M272.236 109.371C272.236 109.371 268.571 104.12 264.095 101.674C259.14 98.9652 255.513 99.7696 255.513 99.7696C255.513 99.7696 254.663 98.9366 255.209 98.4654C255.755 97.9941 256.263 98.4082 256.263 98.4082C256.263 98.4082 261.579 92.7296 267.921 94.5431C274.267 96.3567 276.379 100.288 276.123 100.574C274.818 102.026 274.068 99.7744 274.068 99.7744C274.068 99.7744 275.61 101.835 273.83 106.053L273.304 107.705C273.304 107.705 273.74 109.632 272.231 109.375L272.236 109.371Z" fill="#263238"/>
<path opacity="0.7" d="M272.236 109.371C272.236 109.371 268.571 104.12 264.095 101.674C259.14 98.9652 255.513 99.7696 255.513 99.7696C255.513 99.7696 254.663 98.9366 255.209 98.4654C255.755 97.9941 256.263 98.4082 256.263 98.4082C256.263 98.4082 261.579 92.7296 267.921 94.5431C274.267 96.3567 276.379 100.288 276.123 100.574C274.818 102.026 274.068 99.7744 274.068 99.7744C274.068 99.7744 275.61 101.835 273.83 106.053L273.304 107.705C273.304 107.705 273.74 109.632 272.231 109.375L272.236 109.371Z" fill="white"/>
<path d="M263.991 101.44C263.312 101.212 262.809 100.531 262.79 99.8124C262.775 99.3412 262.946 98.889 263.07 98.432C263.188 97.9751 263.255 97.4705 263.041 97.0469C262.856 96.6899 262.472 96.4424 262.068 96.4281C261.665 96.4138 261.266 96.6328 261.057 96.9755C261.209 96.6899 261.105 96.3281 260.896 96.0854C260.687 95.8426 260.388 95.695 260.098 95.557C259.581 95.3047 258.997 95.0429 258.442 95.2095C257.886 95.3761 257.54 95.9235 257.345 96.4709C257.098 97.1754 257.032 97.9656 257.284 98.6653C257.621 99.6078 258.489 100.274 259.424 100.617C260.359 100.96 261.37 101.017 262.367 101.074" fill="#263238"/>
<path opacity="0.2" d="M274.272 100.141C274.272 100.141 273.55 97.7275 270.574 96.5185L274.272 100.141Z" fill="black"/>
<path opacity="0.3" d="M272.957 107.6C271.168 104.077 267.427 100.522 263.644 98.751L263.696 98.6415C267.498 100.422 271.263 103.996 273.066 107.543L272.962 107.595L272.957 107.6Z" fill="black"/>
<path d="M257.54 112.089C257.929 112.774 258.266 113.493 258.556 114.226C258.689 114.197 258.831 114.173 258.964 114.135C260.806 113.721 261.527 112.922 261.755 112.155C261.859 111.779 261.878 111.384 261.802 110.999C261.764 110.78 261.698 110.57 261.603 110.37C260.758 111.175 259.073 111.694 258.162 111.932C257.763 112.017 257.535 112.084 257.535 112.084L257.54 112.089Z" fill="#263238"/>
<path d="M258.143 111.917L258.461 112.541C260.189 112.146 261.356 111.646 261.783 110.984C261.745 110.765 261.679 110.556 261.584 110.356C260.734 111.17 259.054 111.679 258.143 111.917Z" fill="white"/>
<path d="M258.94 114.121C260.782 113.707 261.503 112.907 261.731 112.141C261.033 112.312 260.374 112.603 259.78 113.002C259.391 113.278 259.097 113.669 258.94 114.116V114.121Z" fill="#C15854"/>
<path d="M236.071 189.567L224.142 191.857L222.073 186.954L234.557 182.641L236.071 189.567Z" fill="#EBB373"/>
<path d="M218.888 194.513L217.169 191.204C217.169 191.204 217.611 190.567 217.269 189.857C217.075 189.458 216.049 188.82 216.049 188.82L211.26 179.757C211.26 179.757 211.877 179.423 212.2 179.385C212.589 179.333 212.94 179.328 213.258 179.362C214.364 179.476 215.257 180.314 215.897 180.956C216.965 182.032 220.63 184.664 220.63 184.664C220.63 184.664 221.66 185.278 223.24 185.183C224.123 185.131 224.84 185.44 225.096 185.807C225.623 186.554 225.381 187.249 224.698 187.753L223.9 188.339C223.748 189.201 224.195 189.995 225.101 190.31C225.101 190.31 226.995 191.481 226.093 191.838C225.576 192.037 223.236 192.856 221.404 193.556C220.976 193.718 220.573 193.875 220.217 194.008C219.429 194.308 218.893 194.513 218.893 194.513H218.888Z" fill="#263238"/>
<path d="M218.736 183.198C218.793 183.222 218.831 183.279 218.826 183.341C218.807 183.627 218.712 183.912 218.537 184.16C218.446 184.288 218.223 184.16 218.313 184.026C218.465 183.807 218.551 183.56 218.57 183.308C218.575 183.222 218.655 183.17 218.731 183.198H218.736Z" fill="#263238"/>
<path d="M219.481 183.698C219.538 183.722 219.576 183.779 219.571 183.841C219.552 184.126 219.457 184.412 219.282 184.659C219.192 184.788 218.968 184.659 219.059 184.526C219.211 184.307 219.296 184.06 219.315 183.807C219.32 183.722 219.4 183.669 219.476 183.698H219.481Z" fill="#263238"/>
<path d="M220.212 184.236C220.269 184.255 220.307 184.317 220.302 184.379C220.283 184.664 220.188 184.95 220.013 185.197C219.923 185.326 219.699 185.197 219.79 185.064C219.942 184.845 220.027 184.598 220.046 184.345C220.051 184.26 220.131 184.207 220.207 184.236H220.212Z" fill="#263238"/>
<path opacity="0.2" d="M217.269 189.858C217.075 189.458 216.049 188.82 216.049 188.82L211.26 179.757C211.26 179.757 211.877 179.424 212.2 179.386C212.38 179.362 212.551 179.352 212.712 179.348L220.416 193.932C220.35 193.956 220.279 193.985 220.217 194.008C219.429 194.308 218.888 194.513 218.888 194.513L217.169 191.205C217.169 191.205 217.611 190.567 217.269 189.858Z" fill="white"/>
<path d="M220.074 184.474L220.093 184.364C220.141 184.117 220.317 183.293 220.535 182.989C220.758 182.679 221.071 182.479 221.399 182.437C221.579 182.413 221.816 182.451 221.921 182.627C222.002 182.76 221.992 182.951 221.888 183.16C221.736 183.46 221.484 183.726 221.138 183.95C220.834 184.15 220.497 184.288 220.174 184.426L220.07 184.469L220.074 184.474ZM221.503 182.551C221.475 182.551 221.446 182.551 221.418 182.556C221.123 182.594 220.839 182.779 220.635 183.06C220.483 183.27 220.336 183.807 220.236 184.279C220.525 184.155 220.815 184.026 221.081 183.855C221.408 183.641 221.646 183.393 221.788 183.112C221.835 183.012 221.907 182.827 221.826 182.694C221.764 182.589 221.631 182.551 221.508 182.551H221.503Z" fill="#263238"/>
<path d="M221.783 185.611C221.574 185.611 221.361 185.559 221.152 185.459C220.82 185.297 220.279 184.645 220.122 184.45L220.051 184.364L220.16 184.355C220.516 184.326 220.877 184.293 221.237 184.326C221.65 184.364 221.992 184.483 222.267 184.678C222.457 184.812 222.557 184.974 222.543 185.135C222.528 185.345 222.339 185.488 222.168 185.55C222.044 185.592 221.911 185.616 221.779 185.616L221.783 185.611ZM220.288 184.46C220.597 184.831 220.976 185.235 221.204 185.35C221.513 185.502 221.854 185.531 222.13 185.431C222.267 185.378 222.419 185.273 222.429 185.121C222.438 184.964 222.291 184.836 222.201 184.769C221.945 184.588 221.622 184.474 221.228 184.44C220.915 184.412 220.597 184.431 220.283 184.46H220.288Z" fill="#263238"/>
<path d="M280.95 182.755C283.414 178.552 288.93 167.19 277.006 165.362C265.087 163.535 226.027 183.584 226.027 183.584L228.761 191.09L265.462 184.169C265.462 184.169 260.616 191.071 266.725 190.586C275.601 189.439 277.675 187.239 280.95 182.755Z" fill="#263238"/>
<path opacity="0.2" d="M264.593 184.398L274.614 180.909C274.614 180.909 266.279 186.364 263.184 187.078L264.589 184.398H264.593Z" fill="black"/>
<path d="M191.523 83.7855L195.112 79.6205L198.767 80.9153L196.275 85.7895L191.523 83.7855Z" fill="#EEC1BB"/>
<path d="M194.571 79.273C194.571 79.273 194.257 77.3881 195.192 76.1124C196.123 74.8367 196.531 73.5706 197.286 72.6709C198.045 71.7713 198.059 73.3611 197.898 74.2084C197.737 75.0557 197.561 76.0172 198.216 76.0362C198.871 76.0553 203.831 73.3849 204.738 73.5182C205.645 73.6467 204.975 74.3322 204.975 74.3322C204.975 74.3322 206.2 73.7181 206.575 74.137C206.675 74.2465 206.722 74.6558 206.209 75.0271C205.056 75.8554 202.54 77.469 202.54 77.469C202.683 77.3738 205.925 75.6031 206.447 75.4032C207.126 75.1414 207.581 75.3651 207.719 75.7649C207.918 76.3361 203.969 78.6638 203.874 78.878C203.874 78.878 206.1 77.4595 206.779 77.8355C207.458 78.2116 206.105 79.1826 204.752 79.8062C203.509 80.3821 201.221 81.8339 199.901 82.2956C198.273 82.8621 197.058 82.8811 195.942 81.7102C194.827 80.5392 194.571 79.2778 194.571 79.2778V79.273Z" fill="#EEC1BB"/>
<path opacity="0.3" d="M201.999 76.1505C201.999 76.1505 201.961 76.141 201.952 76.1219C201.933 76.0934 201.942 76.0553 201.971 76.041C202.887 75.4365 203.841 74.8701 204.804 74.356C204.833 74.3417 204.871 74.356 204.885 74.3798C204.899 74.4083 204.885 74.4464 204.861 74.4607C203.903 74.9748 202.948 75.5412 202.037 76.141C202.028 76.1457 202.018 76.1505 202.004 76.1505H201.999Z" fill="black"/>
<path opacity="0.3" d="M203.053 79.5396C203.024 79.5396 203.001 79.5206 202.996 79.492C202.683 78.1259 201.952 76.8407 200.941 75.8744C200.917 75.8506 200.917 75.8125 200.941 75.7887C200.964 75.7649 201.002 75.7649 201.026 75.7887C202.056 76.7693 202.801 78.0783 203.119 79.4682C203.129 79.5015 203.105 79.5301 203.077 79.5396C203.077 79.5396 203.067 79.5396 203.062 79.5396H203.053Z" fill="black"/>
<path opacity="0.3" d="M197.048 79.8347C197.048 79.8347 197.01 79.8252 196.996 79.8062C196.982 79.7776 196.991 79.7395 197.02 79.7253C197.504 79.4444 197.889 78.9779 198.083 78.4496C198.278 77.9212 198.278 77.3167 198.093 76.7883C198.083 76.755 198.097 76.7217 198.131 76.7122C198.164 76.7027 198.197 76.7169 198.207 76.7503C198.401 77.3072 198.401 77.9403 198.197 78.4924C197.998 79.0446 197.589 79.5349 197.082 79.83C197.072 79.8347 197.063 79.8395 197.053 79.8395L197.048 79.8347Z" fill="black"/>
<path d="M207.168 151.468L209.024 145.894L195.596 138.383L192.681 146.836L207.168 151.468Z" fill="#EEC1BB"/>
<path d="M207.368 143.952L206.38 145.789C206.157 146.203 206.162 146.703 206.366 147.132C207.239 148.969 206.271 149.473 204.292 149.892C203.812 150.578 204.548 151.23 204.738 151.411L208.986 155.471C209.337 155.814 209.902 155.809 210.244 155.452C210.306 155.39 210.358 155.319 210.396 155.238C211.592 153.005 212.157 151.949 213.647 149.169L218.204 140.672C219.448 138.354 217.374 136.621 216.647 137.459C213.401 141.239 210.515 143.6 208.559 144.257C208.208 144.385 208.179 144.042 207.363 143.947L207.368 143.952Z" fill="#263238"/>
<path d="M210.923 140.725C210.89 140.458 210.728 140.22 210.491 140.092C210.372 140.006 210.216 139.996 210.087 140.068C209.371 140.425 209.209 143.3 209.2 143.628C209.195 143.662 209.205 143.695 209.228 143.723C209.271 143.771 209.342 143.776 209.39 143.733C209.826 143.238 210.211 142.705 210.534 142.129C210.809 141.715 210.947 141.224 210.923 140.729V140.725ZM210.182 140.301C210.235 140.268 210.306 140.277 210.353 140.315C210.519 140.415 210.633 140.587 210.667 140.777C210.776 141.51 209.931 142.681 209.442 143.29C209.532 142.11 209.788 140.501 210.182 140.301Z" fill="#263238"/>
<path d="M209.456 143.662C209.537 142.814 209.181 140.763 208.545 140.515C208.412 140.458 208.213 140.468 208.004 140.758C207.183 141.943 209.152 143.695 209.247 143.747C209.281 143.78 209.328 143.79 209.371 143.776C209.39 143.757 209.404 143.733 209.409 143.704L209.456 143.662ZM208.165 140.901C208.312 140.682 208.398 140.725 208.426 140.739C208.825 140.867 209.205 142.429 209.195 143.39C208.754 142.952 207.681 141.777 208.113 140.982L208.165 140.901Z" fill="#263238"/>
<path d="M209.637 145.656C209.594 145.656 209.556 145.632 209.532 145.594C209.157 144.932 209.091 144.109 209.356 143.39C209.38 143.328 209.447 143.295 209.508 143.319C209.57 143.343 209.599 143.409 209.58 143.471C209.337 144.123 209.399 144.871 209.736 145.475C209.769 145.532 209.75 145.604 209.693 145.637C209.675 145.646 209.656 145.651 209.637 145.651V145.656Z" fill="#263238"/>
<path d="M211.103 144.975C211.061 144.975 211.023 144.952 210.999 144.913C210.624 144.252 210.557 143.428 210.823 142.71C210.847 142.648 210.913 142.619 210.975 142.638C211.037 142.662 211.065 142.729 211.046 142.79C210.804 143.443 210.861 144.19 211.203 144.794C211.236 144.852 211.217 144.923 211.16 144.956C211.141 144.966 211.122 144.971 211.103 144.971V144.975Z" fill="#263238"/>
<path d="M212.589 143.942C212.546 143.942 212.508 143.919 212.485 143.88C212.11 143.219 212.043 142.395 212.309 141.677C212.333 141.615 212.399 141.581 212.461 141.605C212.523 141.629 212.551 141.696 212.532 141.758C212.29 142.41 212.352 143.157 212.689 143.761C212.722 143.819 212.703 143.89 212.646 143.923C212.627 143.933 212.608 143.938 212.589 143.938V143.942Z" fill="#263238"/>
<path opacity="0.3" d="M202.692 142.353L204.339 143.276L201.786 149.745L199.858 149.131L202.692 142.353Z" fill="black"/>
<path d="M165.374 114.088L172.071 118.196C180.672 118.624 209.741 118.862 209.826 129.234C212.679 141.458 186.359 140.291 168.858 140.463C168.739 140.463 168.64 140.534 168.568 140.648C168.412 140.891 166.717 141.762 164.548 142.11C161.876 142.533 155.767 142.909 151.841 142.286C145.068 141.21 143.117 134.76 144.413 125.688C144.944 121.961 147 118.933 147.621 114.288L165.374 114.092V114.088Z" fill="#263238"/>
<path opacity="0.2" d="M147.019 127.882L147.061 128.306C147.061 128.306 169.2 124.631 182.685 133.518C182.685 133.518 197.3 129.924 200.271 127.187C184.085 135.727 169.589 125.84 169.589 125.84L162.45 122.641C156.616 120.028 150.74 122.023 147.023 127.882H147.019Z" fill="black"/>
<path d="M172.081 142.262L174.639 147.546L189.477 143.504L185.671 135.412L172.081 142.262Z" fill="#EEC1BB"/>
<path d="M177.915 147.431L176.69 145.742C176.415 145.361 175.964 145.147 175.494 145.147C173.462 145.142 173.434 144.042 173.908 142.076C173.5 141.348 172.598 141.729 172.351 141.824L166.86 143.904C166.399 144.076 166.162 144.585 166.328 145.051C166.356 145.132 166.399 145.213 166.451 145.28C167.937 147.331 168.644 148.298 170.496 150.849L176.158 158.651C177.701 160.778 180.16 159.66 179.718 158.636C177.729 154.062 176.861 150.43 177.117 148.379C177.155 148.007 177.473 148.131 177.915 147.431Z" fill="#263238"/>
<path d="M179.267 152.044C179.524 152.13 179.804 152.087 180.027 151.93C180.155 151.858 180.231 151.72 180.221 151.577C180.212 150.778 177.696 149.383 177.411 149.231C177.383 149.212 177.345 149.207 177.312 149.216C177.25 149.235 177.217 149.297 177.231 149.359C177.483 149.969 177.801 150.544 178.176 151.087C178.427 151.516 178.812 151.849 179.267 152.044ZM179.965 151.558C179.965 151.62 179.937 151.677 179.88 151.706C179.714 151.811 179.514 151.844 179.329 151.792C178.622 151.573 177.938 150.302 177.601 149.597C178.622 150.192 179.96 151.12 179.97 151.563L179.965 151.558Z" fill="#263238"/>
<path d="M177.264 149.445C177.986 149.888 179.989 150.454 180.487 149.983C180.596 149.888 180.672 149.707 180.501 149.393C179.794 148.141 177.364 149.155 177.274 149.221C177.231 149.235 177.198 149.274 177.193 149.321C177.203 149.35 177.217 149.369 177.241 149.388L177.26 149.45L177.264 149.445ZM180.302 149.478C180.435 149.707 180.359 149.764 180.331 149.783C180.041 150.088 178.479 149.754 177.616 149.331C178.204 149.121 179.718 148.664 180.25 149.397L180.302 149.478Z" fill="#263238"/>
<path d="M177.464 149.673C177.43 149.673 177.402 149.659 177.378 149.635C176.899 149.136 176.201 148.864 175.513 148.912C175.446 148.921 175.389 148.864 175.385 148.802C175.385 148.736 175.427 148.679 175.494 148.674C176.253 148.617 177.022 148.921 177.549 149.473C177.597 149.521 177.592 149.597 177.549 149.64C177.525 149.664 177.497 149.673 177.468 149.673H177.464Z" fill="#263238"/>
<path d="M177.44 151.297C177.407 151.297 177.378 151.282 177.354 151.258C176.875 150.759 176.177 150.487 175.489 150.535C175.432 150.544 175.366 150.492 175.361 150.425C175.356 150.359 175.408 150.302 175.47 150.297C176.229 150.245 176.998 150.544 177.525 151.097C177.573 151.144 177.568 151.22 177.525 151.263C177.502 151.287 177.473 151.297 177.445 151.297H177.44Z" fill="#263238"/>
<path d="M177.725 153.082C177.691 153.082 177.663 153.067 177.639 153.043C177.16 152.544 176.462 152.272 175.774 152.32C175.717 152.329 175.65 152.277 175.646 152.21C175.646 152.144 175.688 152.087 175.755 152.082C176.514 152.025 177.283 152.329 177.81 152.882C177.858 152.929 177.853 153.005 177.81 153.048C177.786 153.072 177.758 153.082 177.729 153.082H177.725Z" fill="#263238"/>
<path d="M203.162 141.877C203.162 141.877 169.086 122.746 157.38 122.384C145.675 122.023 144.351 130.876 148.656 137.697C152.961 144.514 163.765 141.21 163.765 141.21C163.765 141.21 155.221 139.04 156.279 136.717C157.338 134.394 160.494 137.997 160.494 137.997C160.494 137.997 181.199 146.522 199.673 149.545L203.167 141.877H203.162Z" fill="#263238"/>
<path opacity="0.2" d="M185.604 132.404L196.574 138.754L197.732 138.63L187.346 132.071L185.604 132.404Z" fill="black"/>
<path opacity="0.2" d="M168.198 140.92C168.198 140.92 157.143 136.522 157.267 136.522C157.39 136.522 164.235 141.667 166.475 141.643L168.198 140.92Z" fill="black"/>
<path d="M170.543 81.039C170.543 81.039 171.877 80.7296 176.766 86.4464C180.084 90.3258 185.125 93.1818 185.125 93.1818C185.557 92.2488 193.175 81.039 193.175 81.039L198.021 83.7998C198.021 83.7998 190.906 102.25 186.278 102.978C181.65 103.701 170.866 94.3765 170.866 94.3765L170.538 81.0438L170.543 81.039Z" fill="#263238"/>
<path d="M143.943 87.822C146.05 94.1719 146.15 108.518 145.405 116.444H171.478C175.589 100.631 172.029 89.388 171.677 85.6848C171.241 81.177 170.548 81.0057 170.548 81.0057C170.548 81.0057 165.673 80.5297 161.429 80.563C158.145 80.6868 154.869 81.0438 151.637 81.6293C149.23 82.0339 146.848 82.5717 144.498 83.2381C143.492 83.5237 142.908 84.5757 143.193 85.5896C143.202 85.6229 143.212 85.6514 143.221 85.6848C143.473 86.394 143.715 87.1223 143.943 87.8268V87.822Z" fill="#263238"/>
<path opacity="0.2" d="M145.4 116.444C146.022 109.061 150.797 100.545 150.047 93.177C152.264 96.3376 152.999 102.54 153.901 109.466C154.195 111.722 162.36 114.002 162.744 116.334L145.4 116.444Z" fill="black"/>
<path d="M149.525 82.4718C148.31 84.2139 163.257 87.0176 163.257 87.0176C163.257 87.0176 172.005 81.3246 161.79 80.4392C159.706 80.2536 151.447 79.7348 149.525 82.4718Z" fill="#CD877B"/>
<path d="M163.746 90.2448C163.746 90.2448 171.801 83.5808 167.633 79.5872C163.466 75.5983 143.843 73.8133 145.504 82.9001C145.504 82.9001 148.03 82.1528 150.579 84.5899C155.952 89.745 163.751 90.2448 163.751 90.2448H163.746Z" fill="#263238"/>
<path opacity="0.2" d="M163.072 88.3266C163.072 88.3266 167.633 84.7756 166.024 81.5721C164.42 78.3734 154.931 74.8653 148.129 79.2778C149.757 80.1156 151.276 81.1628 152.634 82.3909C155.33 84.7042 163.067 88.3218 163.067 88.3218L163.072 88.3266Z" fill="black"/>
<path opacity="0.2" d="M161.339 88.7787C161.339 89.031 161.14 89.2405 160.888 89.2405C160.637 89.2405 160.428 89.0405 160.428 88.7883C160.428 88.536 160.627 88.3265 160.879 88.3265C160.879 88.3265 160.888 88.3265 160.893 88.3265C161.14 88.3265 161.339 88.5312 161.344 88.7787H161.339Z" fill="black"/>
<path opacity="0.2" d="M165.887 87.465C165.887 87.7125 165.692 87.9172 165.445 87.922H165.44C165.189 87.9505 164.961 87.7744 164.932 87.5221C164.904 87.2699 165.08 87.0414 165.331 87.0128C165.369 87.0128 165.402 87.0128 165.44 87.0128C165.687 87.0128 165.891 87.2127 165.891 87.465H165.887Z" fill="black"/>
<path d="M170.121 92.0394C170.121 92.2916 169.921 92.5011 169.67 92.5011C169.418 92.5011 169.209 92.3012 169.209 92.0489C169.209 91.7966 169.409 91.5872 169.66 91.5872H169.665C169.916 91.5872 170.116 91.7871 170.121 92.0394Z" fill="#263238"/>
<path d="M160.309 94.3718C160.309 94.6193 160.11 94.824 159.858 94.824C159.611 94.824 159.407 94.624 159.407 94.3718C159.407 94.1195 159.607 93.9196 159.858 93.9196C160.105 93.9196 160.309 94.1195 160.309 94.3718Z" fill="#263238"/>
<path d="M169.56 92.2298C169.56 92.2298 167.795 91.9918 167.491 89.7308C167.453 88.636 166.561 87.7697 165.469 87.7744C165.379 87.7744 165.298 87.7078 165.298 87.6173C165.288 87.5317 165.355 87.4507 165.445 87.446H165.459C166.712 87.446 167.752 88.4265 167.823 89.6832C168.089 91.6729 169.589 91.8966 169.598 91.9013C169.689 91.9109 169.75 91.9918 169.746 92.0822C169.731 92.1727 169.651 92.2345 169.56 92.2298Z" fill="#263238"/>
<path d="M159.858 94.3717C159.768 94.3717 159.697 94.3003 159.692 94.2147C159.654 93.0532 160.081 91.9203 160.874 91.0731C161.187 90.797 161.368 90.4067 161.382 89.9925C161.349 89.5784 161.168 89.1833 160.879 88.8882C160.803 88.8359 160.789 88.7311 160.841 88.655C160.893 88.5788 160.997 88.5645 161.073 88.6169C161.088 88.6264 161.097 88.6359 161.107 88.6502C161.463 89.0025 161.681 89.4737 161.714 89.9735C161.705 90.4781 161.486 90.9588 161.111 91.2968C160.39 92.0774 159.996 93.1151 160.02 94.1813C160.02 94.2718 159.958 94.3479 159.868 94.3622L159.853 94.3765L159.858 94.3717Z" fill="#263238"/>
<path d="M177.383 128.629L178.693 128.867C178.693 128.867 178.328 127.687 182.975 126.14C187.621 124.593 192.245 123.755 192.245 123.755C192.245 123.755 183.848 123.332 183.63 123.332C183.411 123.332 175.641 126.097 175.641 126.097L177.383 128.625V128.629Z" fill="#263238"/>
<path d="M174.06 120.033C174.293 120.033 192.249 123.755 192.249 123.755C192.249 123.755 179.766 123.298 177.388 128.629L162.853 122.646C162.853 122.646 166.926 119.928 174.06 120.038V120.033Z" fill="#EBEBEB"/>
<path d="M204.339 120.033V120.818C204.339 120.818 196.275 119.881 192.245 123.76L192.026 121.899L197.371 119.438L204.339 120.033Z" fill="#263238"/>
<path d="M188.025 116.396C188.025 116.396 178.285 113.812 174.701 120.157L192.245 123.76C192.245 123.76 193.056 118.924 204.339 120.033L188.025 116.396Z" fill="#EBEBEB"/>
<path d="M143.724 83.6427C143.311 83.7903 140.639 86.0323 140.767 91.2873C140.957 98.989 142.846 114.944 143.724 116.444C144.602 117.943 167.847 124.474 168.193 124.855C168.54 125.236 169.746 120.785 169.746 120.785L151.846 109.399C151.846 109.399 150.787 93.3579 150.365 90.9541C149.942 88.5503 148.723 81.8435 143.724 83.6427Z" fill="#263238"/>
<path d="M169.541 121.513L170.543 121.966C170.543 121.966 175.28 121.589 176.481 122.789C177.682 123.989 178.356 129.467 178.356 129.467L168.193 124.855L169.541 121.513Z" fill="#EEC1BB"/>
<path d="M153.146 82.9859C153.146 82.9859 155.306 84.4186 158.354 86.275C158.99 86.6606 162.227 88.0933 162.934 88.3266L164.244 87.1985C164.311 86.9985 164.349 86.7843 164.368 86.5654C164.5 85.0898 164.021 83.1287 162.73 82.4099C161.273 81.6007 160.509 80.8248 160.513 79.3968C160.504 78.5876 160.656 77.7308 160.855 76.8835L159.222 76.2362L153.047 71.7665C154.195 74.9462 155.61 80.5773 153.146 82.9811V82.9859Z" fill="#EEC1BB"/>
<path opacity="0.2" d="M160.518 79.711C158.918 79.0874 157.077 77.8546 156.982 76.1029C156.949 75.3651 156.987 74.6559 157.091 74.1894L160.694 77.6166C160.556 78.2878 160.537 78.7209 160.518 79.7062V79.711Z" fill="black"/>
<path d="M151.02 65.907C152.42 71.2715 152.9 73.5658 156.18 75.9554C161.111 79.5492 167.358 77.0216 167.576 71.4334C167.776 66.4068 165.45 58.4766 159.735 57.0772C154.105 55.6968 149.615 60.5425 151.02 65.907Z" fill="#EEC1BB"/>
<path d="M158.638 66.4734C158.762 67.0446 159.151 67.4683 159.507 67.4159C159.868 67.3636 160.058 66.859 159.934 66.2878C159.811 65.7166 159.422 65.293 159.066 65.3453C158.705 65.3977 158.515 65.9022 158.638 66.4734Z" fill="#263238"/>
<path d="M164.149 65.5214C164.268 66.0736 164.657 66.483 165.013 66.4306C165.369 66.3782 165.564 65.888 165.445 65.331C165.326 64.7789 164.937 64.3695 164.581 64.4219C164.225 64.4742 164.031 64.9645 164.149 65.5214Z" fill="#263238"/>
<path d="M156.882 64.6884C156.953 64.6884 157.02 64.6551 157.067 64.5932C157.774 63.6745 158.762 63.7935 158.776 63.7935C158.923 63.8126 159.051 63.7078 159.061 63.5603C159.07 63.4127 158.956 63.2794 158.804 63.2556C158.752 63.2509 157.513 63.1033 156.635 64.241C156.55 64.3552 156.574 64.5265 156.692 64.6217C156.749 64.6693 156.82 64.6884 156.887 64.6836L156.882 64.6884Z" fill="#263238"/>
<path d="M165.056 62.5607C165.108 62.5322 165.146 62.4846 165.16 62.4227C165.189 62.2894 165.103 62.1466 164.966 62.0943C163.608 61.5992 162.777 62.2894 162.739 62.318C162.64 62.4037 162.64 62.5607 162.739 62.675C162.839 62.7892 162.996 62.813 163.095 62.7273C163.129 62.6988 163.784 62.1799 164.861 62.5703C164.932 62.5941 164.999 62.5893 165.056 62.5607Z" fill="#263238"/>
<path d="M162.203 65.5739C162.203 65.5739 163.39 67.4731 164.562 68.5822C164.766 68.7773 164.719 69.1201 164.472 69.2581C163.841 69.6199 163.02 69.5247 163.02 69.5247L162.203 65.5739Z" fill="#D4827D"/>
<path d="M158.866 65.4024L160.062 64.8978C160.062 64.8978 159.535 65.945 158.866 65.4024Z" fill="#263238"/>
<path d="M164.396 64.4789L165.592 63.9744C165.592 63.9744 165.065 65.0216 164.396 64.4789Z" fill="#263238"/>
<path d="M153.351 73.0422C135.138 61.7324 155.496 54.0498 155.496 54.0498C163.675 48.3045 163.959 57.0391 163.959 57.0391C168.056 61.3278 162.255 65.0787 162.255 65.0787C164.7 61.5516 160.917 59.4476 160.917 59.4476C161.496 64.1362 156.939 65.9736 156.939 65.9736C158.724 61.7467 157.585 59.5571 157.585 59.5571C156.279 67.0922 152.52 68.6059 152.52 68.6059L153.351 73.0422Z" fill="#263238"/>
<path d="M150.113 70.6241C150.939 71.6332 152.097 72.1616 153.094 72.2425C154.594 72.3663 154.95 69.9196 154.219 68.5583C153.559 67.3302 152.007 66.7066 150.654 67.2255C149.321 67.7348 149.169 69.4722 150.113 70.6241Z" fill="#EEC1BB"/>
<path opacity="0.2" d="M153.707 69.8768C153.654 69.8768 153.607 69.8387 153.593 69.7864C153.483 69.358 153.26 68.9581 152.942 68.6392C152.738 68.4298 152.406 68.1727 151.998 68.1299C151.628 68.0918 151.257 68.2632 151.115 68.544C151.086 68.6011 151.015 68.6249 150.953 68.5964C150.897 68.5678 150.873 68.4964 150.901 68.4345C151.091 68.068 151.552 67.8395 152.021 67.8919C152.501 67.9443 152.881 68.2346 153.113 68.4726C153.46 68.8249 153.702 69.258 153.82 69.7293C153.835 69.7911 153.797 69.8578 153.735 69.8721C153.726 69.8721 153.716 69.8721 153.707 69.8721V69.8768Z" fill="black"/>
<path d="M162.925 71.5C162.516 72.0284 162.141 72.59 161.814 73.1755C161.705 73.1374 161.591 73.0946 161.482 73.0518C159.986 72.4806 159.474 71.719 159.374 71.0478C159.331 70.7194 159.365 70.3814 159.474 70.0672C159.531 69.8911 159.611 69.7198 159.716 69.5627C160.328 70.3433 161.681 70.9812 162.417 71.2953C162.739 71.4143 162.925 71.5 162.925 71.5Z" fill="#263238"/>
<path d="M162.44 71.2857L162.099 71.7713C160.694 71.2286 159.778 70.6669 159.497 70.0577C159.554 69.8815 159.635 69.7102 159.74 69.5531C160.357 70.3385 161.705 70.9716 162.44 71.2857Z" fill="white"/>
<path d="M161.501 73.0422C160.005 72.471 159.493 71.7094 159.393 71.0382C159.958 71.2667 160.48 71.5904 160.931 71.9997C161.225 72.2806 161.425 72.6423 161.501 73.0374V73.0422Z" fill="#C15854"/>
<path d="M123.048 185.373L129.147 196.559L134.473 194.97L129.636 181.989L123.048 185.373Z" fill="#895555"/>
<path d="M130.51 202.586L134.316 201.772C134.316 201.772 134.535 200.991 135.337 200.796C135.788 200.686 136.984 201.091 136.984 201.091L147.474 198.935C147.474 198.935 147.327 198.211 147.147 197.926C146.928 197.573 146.696 197.288 146.458 197.05C145.628 196.231 144.36 196.064 143.416 195.974C141.835 195.822 137.278 194.613 137.278 194.613C137.278 194.613 136.096 194.189 135.119 192.842C134.573 192.095 133.847 191.714 133.381 191.752C132.432 191.823 132.033 192.48 132.081 193.37L132.138 194.403C131.544 195.103 130.609 195.265 129.75 194.746C129.75 194.746 127.543 193.994 127.861 194.96C128.041 195.512 128.943 197.954 129.598 199.901C129.75 200.353 129.897 200.786 130.021 201.162C130.301 202 130.495 202.576 130.495 202.576L130.51 202.586Z" fill="#263238"/>
<path d="M139.723 195.174C139.666 195.141 139.595 195.15 139.547 195.198C139.329 195.408 139.168 195.669 139.082 195.979C139.039 196.141 139.296 196.231 139.338 196.069C139.414 195.798 139.557 195.565 139.747 195.384C139.808 195.322 139.804 195.227 139.728 195.179L139.723 195.174Z" fill="#263238"/>
<path d="M138.826 194.903C138.769 194.87 138.698 194.879 138.65 194.927C138.432 195.136 138.27 195.398 138.185 195.707C138.142 195.869 138.399 195.96 138.441 195.798C138.517 195.526 138.66 195.293 138.849 195.112C138.911 195.05 138.906 194.955 138.831 194.908L138.826 194.903Z" fill="#263238"/>
<path d="M137.905 194.67C137.848 194.636 137.777 194.646 137.729 194.693C137.511 194.903 137.35 195.165 137.264 195.474C137.221 195.636 137.478 195.726 137.52 195.565C137.596 195.293 137.739 195.06 137.929 194.879C137.99 194.817 137.986 194.722 137.91 194.674L137.905 194.67Z" fill="#263238"/>
<path opacity="0.2" d="M135.337 200.796C135.788 200.686 136.984 201.091 136.984 201.091L147.474 198.935C147.474 198.935 147.327 198.211 147.147 197.926C147.047 197.764 146.943 197.621 146.838 197.483L129.959 200.958C129.983 201.024 130.006 201.1 130.03 201.167C130.31 202.005 130.505 202.581 130.505 202.581L134.312 201.767C134.312 201.767 134.53 200.986 135.332 200.791L135.337 200.796Z" fill="white"/>
<path d="M137.81 194.936L137.777 194.827C137.672 194.47 137.563 194.103 137.52 193.727C137.473 193.299 137.52 192.918 137.658 192.594C137.758 192.371 137.9 192.237 138.062 192.214C138.275 192.185 138.46 192.347 138.56 192.509C138.74 192.804 138.788 193.189 138.688 193.575C138.593 193.951 138.043 194.646 137.876 194.846L137.805 194.932L137.81 194.936ZM138.114 192.333C138.114 192.333 138.09 192.333 138.081 192.333C137.914 192.356 137.815 192.537 137.767 192.642C137.634 192.942 137.592 193.304 137.639 193.713C137.677 194.041 137.767 194.37 137.862 194.684C138.175 194.289 138.512 193.808 138.579 193.546C138.669 193.194 138.626 192.837 138.465 192.575C138.389 192.452 138.261 192.333 138.119 192.333H138.114Z" fill="#263238"/>
<path d="M137.691 194.879C137.354 194.879 136.609 194.86 136.291 194.717C135.93 194.556 135.66 194.275 135.546 193.951C135.484 193.77 135.47 193.523 135.627 193.375C135.745 193.261 135.94 193.232 136.177 193.294C136.514 193.385 136.837 193.584 137.145 193.894C137.411 194.165 137.63 194.479 137.838 194.784L137.9 194.874H137.786C137.758 194.874 137.725 194.874 137.687 194.874L137.691 194.879ZM135.945 193.38C135.859 193.38 135.774 193.399 135.707 193.461C135.589 193.57 135.603 193.765 135.655 193.913C135.759 194.208 136.006 194.46 136.339 194.613C136.585 194.722 137.169 194.765 137.672 194.765C137.482 194.494 137.288 194.218 137.055 193.984C136.766 193.694 136.457 193.499 136.144 193.418C136.092 193.404 136.02 193.389 135.945 193.389V193.38Z" fill="#263238"/>
<path d="M97.8335 193.575L95.0473 206.018L100.093 208.35L105.006 195.398L97.8335 193.575Z" fill="#895555"/>
<path d="M92.0996 211.444L95.4934 213.358C95.4934 213.358 96.1722 212.915 96.9032 213.3C97.3162 213.515 97.9475 214.614 97.9475 214.614L107.241 219.941C107.241 219.941 107.607 219.303 107.664 218.965C107.73 218.555 107.749 218.189 107.726 217.856C107.64 216.69 106.8 215.723 106.15 215.033C105.063 213.876 102.438 209.945 102.438 209.945C102.438 209.945 101.83 208.84 101.982 207.184C102.068 206.26 101.769 205.499 101.394 205.213C100.629 204.637 99.8983 204.866 99.3525 205.57L98.7164 206.384C97.8098 206.517 96.9981 206.022 96.6991 205.061C96.6991 205.061 95.5362 203.033 95.1374 203.971C94.9096 204.504 93.9793 206.936 93.1866 208.836C93.0014 209.278 92.8258 209.697 92.6739 210.064C92.3322 210.878 92.0996 211.439 92.0996 211.439V211.444Z" fill="#263238"/>
<path d="M103.9 211.977C103.881 211.915 103.819 211.877 103.753 211.877C103.454 211.891 103.155 211.982 102.889 212.153C102.751 212.244 102.884 212.482 103.022 212.391C103.259 212.239 103.52 212.158 103.781 212.144C103.871 212.144 103.928 212.063 103.9 211.977Z" fill="#263238"/>
<path d="M103.401 211.182C103.382 211.12 103.321 211.082 103.254 211.082C102.955 211.097 102.656 211.187 102.39 211.358C102.253 211.449 102.386 211.687 102.523 211.596C102.761 211.444 103.017 211.363 103.283 211.349C103.373 211.349 103.43 211.268 103.401 211.182Z" fill="#263238"/>
<path d="M102.87 210.397C102.851 210.335 102.789 210.297 102.723 210.297C102.424 210.311 102.125 210.402 101.859 210.573C101.721 210.663 101.854 210.901 101.992 210.811C102.229 210.659 102.485 210.578 102.751 210.563C102.841 210.563 102.898 210.483 102.87 210.397Z" fill="#263238"/>
<path opacity="0.2" d="M96.9032 213.3C97.3162 213.515 97.9475 214.614 97.9475 214.614L107.241 219.941C107.241 219.941 107.607 219.303 107.664 218.965C107.692 218.774 107.711 218.598 107.721 218.427L92.7546 209.859C92.7261 209.926 92.6976 210.002 92.6692 210.064C92.3274 210.878 92.0948 211.439 92.0948 211.439L95.4887 213.353C95.4887 213.353 96.1675 212.91 96.8985 213.296L96.9032 213.3Z" fill="white"/>
<path d="M102.618 210.53L102.666 210.43C102.822 210.092 102.979 209.745 103.197 209.435C103.444 209.078 103.729 208.826 104.047 208.678C104.265 208.578 104.465 208.569 104.602 208.659C104.783 208.778 104.816 209.026 104.783 209.212C104.726 209.55 104.507 209.873 104.18 210.097C103.857 210.316 102.988 210.473 102.732 210.516L102.623 210.535L102.618 210.53ZM104.37 208.712C104.265 208.712 104.161 208.75 104.094 208.783C103.795 208.921 103.53 209.164 103.292 209.502C103.102 209.773 102.955 210.078 102.818 210.378C103.316 210.287 103.886 210.149 104.109 209.997C104.408 209.792 104.612 209.497 104.664 209.193C104.688 209.04 104.669 208.845 104.536 208.759C104.488 208.726 104.431 208.717 104.374 208.717L104.37 208.712Z" fill="#263238"/>
<path d="M102.727 210.549L102.642 210.478C102.443 210.306 101.783 209.721 101.621 209.364C101.46 209.002 101.436 208.612 101.564 208.293C101.636 208.117 101.788 207.922 102.006 207.917H102.02C102.181 207.917 102.343 208.026 102.471 208.221C102.666 208.512 102.775 208.878 102.803 209.312C102.827 209.692 102.784 210.073 102.737 210.44L102.723 210.549H102.727ZM102.02 208.031H102.011C101.849 208.036 101.731 208.193 101.674 208.336C101.56 208.626 101.579 208.983 101.726 209.312C101.835 209.559 102.253 209.973 102.628 210.311C102.666 209.983 102.699 209.645 102.68 209.316C102.656 208.907 102.552 208.559 102.371 208.283C102.31 208.188 102.181 208.031 102.02 208.031Z" fill="#263238"/>
<path d="M102.704 112.293C102.704 112.293 104.465 128.011 104.935 128.853C106.525 131.704 117.067 136.593 117.067 136.593L122.44 135.465L126.29 138.687L123.75 140.682L120.769 139.554C119.146 139.844 117.494 139.992 115.842 139.987C113.066 139.987 99.68 136.583 97.4491 132.842C95.2134 129.101 94.1881 111.77 94.1881 111.77L102.704 112.293Z" fill="#895555"/>
<path d="M93.965 118.472C93.965 118.472 89.8354 104.668 94.9808 100.836C100.126 97.0041 104.218 115.982 104.218 115.982L93.965 118.472Z" fill="#263238"/>
<path d="M97.2212 143.719L97.1833 125.426L96.7893 100.379L86.527 98.9081L77.7836 98.8271L65.9549 102.516L65.7081 108.661C65.7081 108.661 66.928 136.883 66.8615 137.735C66.7761 138.778 66.515 146.522 66.515 146.522C80.0003 149.602 97.4348 144.656 97.2212 143.723V143.719Z" fill="#263238"/>
<path opacity="0.2" d="M97.0314 117.729L96.4807 105.929L99.1104 117.225L97.0314 117.729Z" fill="black"/>
<path opacity="0.2" d="M74.2141 119.447C74.5464 119.381 76.2267 118.829 76.2267 118.829L72.4911 108.404L77.6222 119.933L74.5369 121.166L74.2141 119.443V119.447Z" fill="black"/>
<path d="M72.7664 110.803C72.7664 110.803 75.3818 128.253 76.8913 129.881C79.445 132.637 92.0853 139.949 92.0853 139.949L98.3936 137.731C98.8351 137.583 99.324 137.664 99.6847 137.94L103.999 141.244L103.587 141.591C103.411 141.743 103.15 141.772 102.941 141.667L102.272 141.334L103.022 142.072L102.784 142.272C102.547 142.472 102.219 142.543 101.916 142.462L99.9885 141.943L101.769 143.133C101.37 143.471 100.819 143.585 100.311 143.443L97.487 142.638C95.5599 143.081 93.5995 143.362 91.6249 143.481C88.3022 143.685 72.6098 138.188 69.6811 134.161C66.7571 130.134 63.7382 113.417 63.7382 113.417L72.7569 110.808L72.7664 110.803Z" fill="#895555"/>
<path d="M64.417 122.408C64.417 122.408 60.5058 106.595 65.6511 102.764C70.7965 98.9319 75.8945 118.938 75.8945 118.938L64.417 122.408Z" fill="#263238"/>
<path d="M106.534 142.51H86.5317C86.5365 143.281 87.3909 143.9 88.4351 143.895H121.021C122.061 143.885 122.896 143.267 122.891 142.51H106.534Z" fill="#263238"/>
<path d="M121.32 143.819H103.045C102.732 143.819 102.476 143.609 102.481 143.357C102.481 143.309 102.49 143.262 102.509 143.219L110.64 124.526C110.844 123.993 111.456 123.627 112.149 123.627H130.434C130.742 123.627 130.994 123.827 130.994 124.079C130.994 124.131 130.984 124.184 130.961 124.231L122.829 142.924C122.621 143.457 122.013 143.819 121.32 143.823V143.819Z" fill="#263238"/>
<path opacity="0.7" d="M130.434 123.622H112.149C111.456 123.622 110.844 123.989 110.64 124.522L102.818 142.51H86.5317C86.5365 143.281 87.3909 143.9 88.4351 143.895H121.021C121.349 143.895 121.652 143.823 121.923 143.714C122.35 143.571 122.687 143.286 122.834 142.914L130.965 124.222C130.989 124.174 130.999 124.122 130.999 124.069C130.999 123.822 130.747 123.617 130.438 123.617L130.434 123.622Z" fill="white"/>
<path d="M119.45 133.575C119.056 134.47 118.254 135.089 117.656 134.96C117.058 134.832 116.901 134.018 117.281 133.118C117.665 132.219 118.472 131.619 119.07 131.743C119.668 131.866 119.844 132.652 119.445 133.575H119.45Z" fill="white"/>
<g opacity="0.3">
<path d="M110.635 124.526L102.813 142.514H103.658L112.145 123.627C111.452 123.627 110.839 123.993 110.635 124.526Z" fill="black"/>
</g>
<path d="M91.8717 77.1215L92.4508 77.4595C93.1249 77.4738 93.7609 77.9831 93.9176 78.6447C94.0742 79.3016 93.7419 80.0489 93.1486 80.3726C93.0584 80.4202 92.954 80.4726 92.9255 80.5678C92.8733 80.7248 93.0394 80.8534 93.1581 80.9628C93.7657 81.4912 93.6897 82.5336 93.1438 83.1239C92.598 83.7141 91.7293 83.9045 90.9319 83.8379C90.723 81.5721 92.0664 79.3825 91.8717 77.1215Z" fill="#263238"/>
<path d="M74.6841 83.4952C73.8249 83.538 72.9658 83.0049 72.6193 82.2147C72.5243 81.9958 72.4626 81.753 72.5006 81.5198C72.6098 80.8819 73.336 80.5916 73.9578 80.4155C73.2648 80.2441 72.7996 79.5539 72.6667 78.8542C72.605 78.5353 72.6003 78.1925 72.7047 77.8831C72.8803 77.3595 73.3455 76.9787 73.8534 76.7741C74.3613 76.5694 74.9166 76.5123 75.4625 76.4599L78.6096 86.4749C77.907 86.632 77.1761 86.7272 76.4688 86.6082C75.7568 86.4892 75.0638 86.1227 74.6698 85.5229C74.2758 84.9184 74.2379 84.0616 74.6841 83.4952Z" fill="#263238"/>
<path d="M76.4451 99.246C79.35 96.7613 79.2124 89.8688 78.6902 86.1227L86.9732 93.3198C86.7738 93.7434 86.6029 94.1814 86.4653 94.6288C86.1852 95.4285 86.114 96.2853 86.2612 97.1183C86.4083 97.8085 87.1773 99.7268 87.1773 99.7268C87.1773 99.7268 87.5902 101.874 81.9607 101.769C79.4829 101.993 76.4546 99.246 76.4546 99.246H76.4451Z" fill="#895555"/>
<path opacity="0.2" d="M80.176 89.9355C79.6823 94.3099 84.0492 96.4281 86.2612 97.1278C86.114 96.2948 86.1852 95.438 86.4653 94.6384L80.176 89.9355Z" fill="black"/>
<path d="M77.271 82.8526C78.2915 88.022 78.7615 90.9541 81.8231 93.258C86.4226 96.7185 92.5695 93.5626 93.1581 88.1791C93.685 83.3334 91.924 75.6983 86.4083 74.3513C80.9734 73.0232 76.2505 77.688 77.271 82.8574V82.8526Z" fill="#895555"/>
<path d="M75.7616 76.6741C76.1128 73.7086 83.4939 72.7281 85.7533 73.9276C86.0903 74.1085 82.0034 76.8122 82.255 76.6836L80.2899 77.6452C79.9623 77.6166 79.388 78.0593 79.1934 79.0589C79.1934 79.0589 80.494 87.0176 78.4766 89.6308C76.4925 88.9835 75.9609 85.8324 75.1208 84.0236C73.8676 81.3294 72.2633 77.35 75.7663 76.6789L75.7616 76.6741Z" fill="#263238"/>
<path d="M75.7378 87.4698C76.3454 88.755 77.5036 89.6403 78.6333 90.0211C80.3326 90.5876 80.7028 88.8121 80.3326 87.1889C80.0003 85.7276 79.3168 83.9855 77.5653 84.1235C75.8375 84.2568 75.0448 86.0037 75.7378 87.4745V87.4698Z" fill="#895555"/>
<path d="M84.4669 83.1144C84.5381 83.6475 84.8846 84.0379 85.2454 83.9903C85.6014 83.9427 85.834 83.4667 85.7628 82.9335C85.6916 82.4004 85.3451 82.0101 84.9843 82.0577C84.6283 82.1053 84.3957 82.5813 84.4669 83.1144Z" fill="#263238"/>
<path d="M89.8497 82.805C89.9209 83.3382 90.2674 83.7285 90.6281 83.6809C90.9889 83.6333 91.2167 83.1573 91.1455 82.6242C91.0743 82.091 90.7278 81.7007 90.3671 81.7483C90.0111 81.7959 89.7785 82.2719 89.8497 82.805Z" fill="#263238"/>
<path d="M88.7247 82.7146C88.7247 82.7146 90.8085 85.1422 91.511 86.1466C90.837 86.9129 89.4842 86.7749 89.4842 86.7749L88.7247 82.7146Z" fill="#6D3939"/>
<path d="M83.4559 81.0295C83.5413 81.0533 83.641 81.0295 83.7075 80.9629C84.5192 80.1584 85.4542 80.325 85.4637 80.325C85.6014 80.3536 85.739 80.2632 85.7675 80.1251C85.796 79.9871 85.7058 79.8586 85.5682 79.83C85.5207 79.8205 84.3483 79.611 83.3372 80.6106C83.2376 80.7106 83.2376 80.8677 83.3372 80.9676C83.3705 81.001 83.4084 81.02 83.4511 81.0295H83.4559Z" fill="#263238"/>
<path opacity="0.2" d="M79.4165 87.2366C79.3643 87.2366 79.3168 87.1985 79.3026 87.1461C79.1934 86.7225 78.975 86.3369 78.6665 86.0228C78.4672 85.8181 78.1396 85.5658 77.7409 85.523C77.3802 85.4849 77.0147 85.6563 76.877 85.9276C76.8485 85.9847 76.7773 86.0085 76.7156 85.9799C76.6587 85.9514 76.6349 85.88 76.6634 85.8181C76.8485 85.4563 77.3042 85.2374 77.7646 85.285C78.2393 85.3373 78.6096 85.6229 78.8374 85.8562C79.1744 86.1989 79.4165 86.6273 79.5352 87.089C79.5494 87.1509 79.5114 87.2175 79.4497 87.2318C79.4402 87.2318 79.4307 87.2318 79.4212 87.2318L79.4165 87.2366Z" fill="black"/>
<path d="M92.579 80.2298C92.6265 80.2156 92.6692 80.1822 92.6977 80.1441C92.7831 80.0347 92.7641 79.8728 92.6502 79.7919C91.5157 78.9542 90.4003 79.354 90.3481 79.3635C90.2151 79.4111 90.1439 79.5587 90.1914 79.6872C90.2389 79.8157 90.386 79.8823 90.5189 79.8395C90.5664 79.8205 91.4303 79.5253 92.3417 80.1965C92.4129 80.2489 92.503 80.2584 92.5837 80.2298H92.579Z" fill="#263238"/>
<path d="M74.029 74.3131C74.2996 73.0565 75.8755 72.6091 77.1238 72.7185C76.896 71.2477 78.7709 70.1767 80.0146 70.0767C81.3152 69.972 81.8373 70.4242 81.8373 70.4242C81.7376 70.4575 82.1458 69.6483 82.4164 69.3151C83.4132 68.0871 85.1505 67.5587 86.6409 68.0204C88.1314 68.4869 89.2896 69.9197 89.4604 71.5095C90.1724 70.6241 91.6107 70.4909 92.4651 71.2382C93.3195 71.9855 93.4239 73.4659 92.6834 74.3274C93.6375 74.2798 94.5441 75.1652 94.5441 76.1457C94.5441 77.1311 93.6328 78.0069 92.6787 77.9498C92.7451 79.0493 92.7831 80.425 92.8496 81.5245L90.8939 77.6785C90.0917 77.4976 89.9066 77.1691 89.655 76.3695C89.2089 77.4643 88.307 77.4785 87.1536 77.5642C86.0001 77.6499 84.8229 77.0216 84.2249 76.0029C83.7549 77.1453 82.7202 78.0878 81.5145 78.1925C80.3089 78.2973 79.032 77.3976 78.8944 76.16C78.3058 77.2929 76.8485 77.8546 75.6761 77.4071C74.5037 76.9597 73.7585 75.5555 74.029 74.2989V74.3131Z" fill="#263238"/>
<path d="M89.2848 88.5457C88.8386 89.1217 88.4399 89.7262 88.0839 90.3593C87.9652 90.3164 87.8418 90.2736 87.7232 90.226C86.1045 89.6072 85.5539 88.7837 85.44 88.0602C85.3925 87.7032 85.4305 87.3414 85.5444 86.9987C85.6061 86.8035 85.6963 86.6227 85.8055 86.4513C86.47 87.2938 87.932 87.9888 88.7294 88.3267C89.0807 88.4553 89.2753 88.5505 89.2753 88.5505L89.2848 88.5457Z" fill="#263238"/>
<path d="M88.7532 88.3123L88.3829 88.8359C86.864 88.2505 85.8672 87.6364 85.5634 86.9843C85.6251 86.7891 85.7153 86.6082 85.8245 86.4369C86.4938 87.2889 87.951 87.9744 88.7484 88.3123H88.7532Z" fill="white"/>
<path d="M87.7421 90.2116C86.1235 89.5928 85.5729 88.7693 85.459 88.0458C86.0713 88.2933 86.6314 88.6455 87.1203 89.0882C87.4383 89.3881 87.6519 89.7832 87.7374 90.2116H87.7421Z" fill="#C15854"/>
<path d="M117.508 161.516C117.309 163.511 116.877 166.238 116.36 168.171C114.95 173.635 113.341 178.89 111.314 184.322C107.398 195.046 104.237 204.999 104.237 204.999L94.2925 202.01C94.2925 202.01 100.867 170.979 105.3 167.804H78.1111C77.6033 167.804 77.0954 167.771 76.5922 167.7C81.2772 167.09 88.5728 164.196 95.3463 161.302C101.327 158.737 106.923 156.176 109.957 155.209C113.668 156.799 117.798 158.389 117.513 161.516H117.508Z" fill="#263238"/>
<path opacity="0.6" d="M109.961 155.238C106.923 156.228 101.327 158.77 95.351 161.331C88.5776 164.225 81.2819 167.119 76.597 167.728C68.708 166.671 65.7413 157.247 73.991 146.375C79.3453 146.375 84.728 151.501 84.728 151.501C84.728 151.501 100.919 151.42 109.961 155.238Z" fill="black"/>
<path d="M132.1 188.629L125.526 192.623C125.526 192.623 120.038 181.07 114.793 168.038C115.311 166.1 115.676 164.13 115.876 162.135C116.16 159.008 113.683 156.804 109.971 155.247C106.933 156.238 101.337 158.779 95.3605 161.34C88.587 164.234 81.2914 167.128 76.6065 167.738C76.0701 167.809 75.529 167.847 74.9831 167.857C65.9834 167.857 62.8791 159.946 66.5103 146.522C71.8645 146.522 81.0351 145.942 81.0351 145.942C81.0351 145.942 98.7307 141.677 111.461 143.128C117.66 143.862 122.678 148.522 123.879 154.667C127.158 170.96 132.095 188.629 132.095 188.629H132.1Z" fill="#263238"/>
<path d="M133.139 189.115L125.526 192.623C125.526 192.623 120.038 181.07 114.793 168.038C115.311 166.1 115.676 164.13 115.876 162.135C116.16 159.008 113.683 156.804 109.971 155.247C106.933 156.238 101.337 158.779 95.3605 161.34C88.587 164.234 81.2914 167.128 76.6065 167.738C76.0701 167.809 75.529 167.847 74.9831 167.857C65.9834 167.857 62.8791 159.946 66.5103 146.522C71.8645 146.522 81.0351 145.942 81.0351 145.942C81.0351 145.942 98.7307 141.677 111.461 143.128C117.66 143.862 122.678 148.522 123.879 154.667C127.158 170.96 133.135 189.115 133.135 189.115H133.139Z" fill="#263238"/>
<path opacity="0.2" d="M117.508 161.516C117.309 163.511 116.877 166.238 116.36 168.171C114.95 173.635 113.341 178.89 111.314 184.322C107.398 195.046 104.237 204.999 104.237 204.999L94.2925 202.01C94.2925 202.01 100.867 170.979 105.3 167.804H78.1111C77.6033 167.804 77.0954 167.771 76.5922 167.7C81.2772 167.09 88.5728 164.196 95.3463 161.302C101.327 158.737 106.923 156.176 109.957 155.209C113.668 156.799 117.798 158.389 117.513 161.516H117.508Z" fill="black"/>
<path d="M87.1773 128.71C88.5116 128.71 89.5933 125.252 89.5933 120.985C89.5933 116.718 88.5116 113.259 87.1773 113.259C85.8429 113.259 84.7612 116.718 84.7612 120.985C84.7612 125.252 85.8429 128.71 87.1773 128.71Z" fill="white"/>
</svg>
